G04 Layer: TopSilkLayer*
G04 EasyEDA v6.4.17, 2021-03-15T19:29:33+07:00*
G04 1d297f51d7db443abc13b46094b112d6,e617fcbdf3ae42ba82bc49894c1518df,10*
G04 Gerber Generator version 0.2*
G04 Scale: 100 percent, Rotated: No, Reflected: No *
G04 Dimensions in millimeters *
G04 leading zeros omitted , absolute positions ,4 integer and 5 decimal *
%FSLAX45Y45*%
%MOMM*%

%ADD10C,0.2540*%
%ADD31C,0.2007*%
%ADD32C,0.2032*%
%ADD33C,0.2997*%
%ADD34C,0.2030*%
%ADD35C,0.1524*%
%ADD36C,0.1270*%

%LPD*%
G36*
X15016175Y2549906D02*
G01*
X15004338Y2549753D01*
X14992502Y2549296D01*
X14980716Y2548585D01*
X14963038Y2546959D01*
X14939518Y2543810D01*
X14927834Y2541778D01*
X14904567Y2536952D01*
X14881504Y2530957D01*
X14870074Y2527554D01*
X14858695Y2523845D01*
X14847417Y2519832D01*
X14836190Y2515565D01*
X14825065Y2511044D01*
X14813991Y2506218D01*
X14803018Y2501087D01*
X14792147Y2495702D01*
X14776094Y2487117D01*
X14765477Y2481021D01*
X14749830Y2471318D01*
X14739518Y2464511D01*
X14729358Y2457450D01*
X14719350Y2450084D01*
X14707717Y2441143D01*
X14697151Y2432710D01*
X14688870Y2425750D01*
X14683943Y2421178D01*
X14680184Y2416708D01*
X14679472Y2413203D01*
X14682266Y2408834D01*
X14689074Y2401824D01*
X14694001Y2397150D01*
X14698421Y2393340D01*
X14701875Y2390749D01*
X14703958Y2389835D01*
X14706549Y2391156D01*
X14711578Y2394762D01*
X14718284Y2400096D01*
X14730425Y2410409D01*
X14739569Y2417876D01*
X14749119Y2425141D01*
X14759025Y2432202D01*
X14769287Y2439060D01*
X14779853Y2445664D01*
X14790674Y2452014D01*
X14801799Y2458110D01*
X14818918Y2466746D01*
X14830602Y2472131D01*
X14842439Y2477262D01*
X14854478Y2482037D01*
X14866619Y2486507D01*
X14878862Y2490673D01*
X14891207Y2494483D01*
X14903602Y2497937D01*
X14916048Y2501036D01*
X14928494Y2503728D01*
X14938959Y2505659D01*
X14950186Y2507284D01*
X14962073Y2508656D01*
X14974366Y2509774D01*
X14987016Y2510586D01*
X14999919Y2511145D01*
X15012873Y2511450D01*
X15025776Y2511450D01*
X15038527Y2511196D01*
X15050973Y2510637D01*
X15063012Y2509824D01*
X15074442Y2508758D01*
X15085161Y2507386D01*
X15095067Y2505710D01*
X15108123Y2503017D01*
X15121178Y2499918D01*
X15134183Y2496464D01*
X15147086Y2492654D01*
X15159939Y2488488D01*
X15172639Y2484018D01*
X15185186Y2479192D01*
X15197531Y2474061D01*
X15209672Y2468676D01*
X15221559Y2462987D01*
X15233192Y2457043D01*
X15244521Y2450795D01*
X15255494Y2444394D01*
X15266111Y2437688D01*
X15276322Y2430830D01*
X15286126Y2423769D01*
X15295473Y2416505D01*
X15322143Y2393492D01*
X15306344Y2400655D01*
X15301061Y2402789D01*
X15295778Y2404516D01*
X15290495Y2405786D01*
X15285262Y2406599D01*
X15280081Y2407005D01*
X15274950Y2407056D01*
X15269921Y2406650D01*
X15264993Y2405938D01*
X15260116Y2404821D01*
X15255392Y2403398D01*
X15250820Y2401671D01*
X15246400Y2399639D01*
X15242082Y2397302D01*
X15234056Y2391816D01*
X15230348Y2388717D01*
X15226842Y2385364D01*
X15223591Y2381808D01*
X15220543Y2378049D01*
X15217749Y2374138D01*
X15215209Y2370074D01*
X15211044Y2361438D01*
X15209418Y2356967D01*
X15208148Y2352395D01*
X15207183Y2347722D01*
X15206522Y2342946D01*
X15206268Y2338171D01*
X15206421Y2333345D01*
X15206929Y2328468D01*
X15207843Y2323592D01*
X15209164Y2318766D01*
X15210942Y2313889D01*
X15213126Y2309114D01*
X15215819Y2304389D01*
X15218918Y2299716D01*
X15222728Y2294890D01*
X15226842Y2290521D01*
X15231160Y2286558D01*
X15235732Y2283002D01*
X15240558Y2279904D01*
X15245486Y2277160D01*
X15250617Y2274874D01*
X15255849Y2272995D01*
X15261234Y2271572D01*
X15266619Y2270506D01*
X15272105Y2269896D01*
X15277592Y2269693D01*
X15283129Y2269947D01*
X15288615Y2270556D01*
X15294051Y2271623D01*
X15299385Y2273096D01*
X15304617Y2274976D01*
X15309748Y2277313D01*
X15314726Y2280005D01*
X15319501Y2283155D01*
X15324074Y2286762D01*
X15328442Y2290724D01*
X15332557Y2295093D01*
X15336367Y2299919D01*
X15339415Y2304288D01*
X15341803Y2308199D01*
X15343682Y2311958D01*
X15345054Y2315718D01*
X15346019Y2319782D01*
X15346629Y2324354D01*
X15347035Y2335834D01*
X15346680Y2345690D01*
X15345460Y2354681D01*
X15343530Y2362504D01*
X15340787Y2368956D01*
X15334488Y2380843D01*
X15346324Y2369972D01*
X15352623Y2363368D01*
X15359278Y2355545D01*
X15366187Y2346756D01*
X15373299Y2337054D01*
X15380462Y2326640D01*
X15387624Y2315616D01*
X15394686Y2304186D01*
X15401594Y2292400D01*
X15408198Y2280513D01*
X15414447Y2268575D01*
X15420289Y2256790D01*
X15425521Y2245258D01*
X15430144Y2234184D01*
X15434310Y2223058D01*
X15438170Y2211171D01*
X15441726Y2198827D01*
X15444927Y2186076D01*
X15447772Y2172970D01*
X15450210Y2159609D01*
X15452344Y2146046D01*
X15454020Y2132330D01*
X15455392Y2118563D01*
X15456306Y2104745D01*
X15456865Y2091029D01*
X15457017Y2077466D01*
X15456763Y2064054D01*
X15456103Y2050948D01*
X15454985Y2038146D01*
X15453461Y2025751D01*
X15451480Y2013813D01*
X15449092Y2001824D01*
X15446298Y1989836D01*
X15443098Y1977847D01*
X15439440Y1965858D01*
X15435427Y1953869D01*
X15431058Y1941982D01*
X15426334Y1930146D01*
X15421254Y1918411D01*
X15415818Y1906828D01*
X15407132Y1889709D01*
X15400883Y1878533D01*
X15394381Y1867611D01*
X15387624Y1856892D01*
X15380563Y1846427D01*
X15373299Y1836267D01*
X15365730Y1826463D01*
X15357957Y1816912D01*
X15349931Y1807768D01*
X15341752Y1799031D01*
X15327985Y1784857D01*
X15346629Y1767484D01*
X15351353Y1763471D01*
X15354909Y1760829D01*
X15356840Y1759813D01*
X15359380Y1761642D01*
X15364510Y1766671D01*
X15371521Y1774037D01*
X15383967Y1788058D01*
X15392450Y1798167D01*
X15400578Y1808480D01*
X15408401Y1818893D01*
X15415869Y1829460D01*
X15426537Y1845564D01*
X15433192Y1856486D01*
X15439542Y1867560D01*
X15445536Y1878736D01*
X15451226Y1890064D01*
X15456611Y1901545D01*
X15461640Y1913128D01*
X15466313Y1924862D01*
X15470682Y1936750D01*
X15474746Y1948738D01*
X15478455Y1960880D01*
X15481807Y1973122D01*
X15484856Y1985467D01*
X15487548Y1997964D01*
X15489885Y2010613D01*
X15491561Y2021332D01*
X15492882Y2032609D01*
X15493949Y2044344D01*
X15494660Y2056434D01*
X15495269Y2075078D01*
X15495168Y2094077D01*
X15494762Y2106828D01*
X15493593Y2125827D01*
X15492476Y2138324D01*
X15491104Y2150567D01*
X15489428Y2162505D01*
X15487497Y2174036D01*
X15485313Y2185111D01*
X15482874Y2195626D01*
X15479877Y2206701D01*
X15476219Y2218740D01*
X15472308Y2230678D01*
X15468142Y2242413D01*
X15463621Y2253996D01*
X15458897Y2265375D01*
X15453868Y2276652D01*
X15448534Y2287727D01*
X15442946Y2298598D01*
X15437104Y2309317D01*
X15430957Y2319883D01*
X15424556Y2330246D01*
X15417901Y2340406D01*
X15410992Y2350363D01*
X15403830Y2360168D01*
X15396362Y2369769D01*
X15388691Y2379167D01*
X15380716Y2388362D01*
X15372537Y2397353D01*
X15364053Y2406142D01*
X15355366Y2414727D01*
X15346375Y2423109D01*
X15337180Y2431237D01*
X15327731Y2439212D01*
X15318028Y2446934D01*
X15308122Y2454452D01*
X15298013Y2461666D01*
X15287751Y2468626D01*
X15277388Y2475280D01*
X15266924Y2481630D01*
X15256306Y2487726D01*
X15245588Y2493568D01*
X15234767Y2499055D01*
X15212872Y2509266D01*
X15201747Y2513939D01*
X15184932Y2520391D01*
X15173604Y2524353D01*
X15162225Y2528011D01*
X15145054Y2532989D01*
X15133523Y2535936D01*
X15121940Y2538628D01*
X15110307Y2541016D01*
X15098623Y2543098D01*
X15086888Y2544927D01*
X15063419Y2547721D01*
X15039797Y2549398D01*
X15027960Y2549804D01*
G37*
G36*
X15064486Y2475992D02*
G01*
X15059355Y2475839D01*
X15055088Y2475026D01*
X15051532Y2473401D01*
X15048433Y2470912D01*
X15045639Y2467457D01*
X15042845Y2463038D01*
X15036647Y2450947D01*
X15031466Y2439720D01*
X15026843Y2428443D01*
X15022830Y2417013D01*
X15019324Y2405532D01*
X15016378Y2393950D01*
X15013990Y2382367D01*
X15012162Y2370683D01*
X15010892Y2358999D01*
X15010180Y2347315D01*
X15009977Y2335631D01*
X15010384Y2323998D01*
X15011298Y2312365D01*
X15012771Y2300782D01*
X15014803Y2289302D01*
X15017343Y2277821D01*
X15020493Y2266492D01*
X15024100Y2255266D01*
X15028316Y2244140D01*
X15033040Y2233168D01*
X15038273Y2222347D01*
X15044064Y2211730D01*
X15050414Y2201214D01*
X15057272Y2190953D01*
X15064638Y2180894D01*
X15071851Y2172055D01*
X15079573Y2163521D01*
X15087854Y2155291D01*
X15096642Y2147366D01*
X15105837Y2139746D01*
X15115489Y2132533D01*
X15125496Y2125675D01*
X15135860Y2119223D01*
X15146528Y2113229D01*
X15157450Y2107641D01*
X15168626Y2102510D01*
X15180005Y2097836D01*
X15191486Y2093722D01*
X15203169Y2090064D01*
X15214854Y2086965D01*
X15226639Y2084425D01*
X15238425Y2082495D01*
X15258846Y2080056D01*
X15266568Y2078532D01*
X15273274Y2076551D01*
X15278963Y2074164D01*
X15283688Y2071370D01*
X15287294Y2068169D01*
X15289885Y2064613D01*
X15291358Y2060752D01*
X15291714Y2056587D01*
X15290952Y2052116D01*
X15289022Y2047392D01*
X15285923Y2042414D01*
X15283942Y2039823D01*
X15281960Y2037892D01*
X15279522Y2036521D01*
X15276322Y2035708D01*
X15271953Y2035302D01*
X15257983Y2035708D01*
X15241676Y2036724D01*
X15229941Y2037943D01*
X15218257Y2039620D01*
X15206726Y2041753D01*
X15195245Y2044344D01*
X15183916Y2047392D01*
X15172740Y2050897D01*
X15161666Y2054809D01*
X15150744Y2059178D01*
X15139974Y2064004D01*
X15129357Y2069287D01*
X15118892Y2074976D01*
X15108631Y2081072D01*
X15098522Y2087625D01*
X15088616Y2094585D01*
X15078913Y2102002D01*
X15069413Y2109774D01*
X15060117Y2118004D01*
X15050922Y2126742D01*
X15042032Y2135886D01*
X15033650Y2145131D01*
X15025776Y2154580D01*
X15018410Y2164283D01*
X15011501Y2174290D01*
X15005050Y2184552D01*
X14998954Y2195220D01*
X14993264Y2206244D01*
X14987930Y2217724D01*
X14982951Y2229713D01*
X14978227Y2242210D01*
X14974011Y2254707D01*
X14970810Y2265629D01*
X14968474Y2276195D01*
X14966848Y2287625D01*
X14965680Y2301189D01*
X14964867Y2318105D01*
X14964257Y2337206D01*
X14964003Y2352852D01*
X14964257Y2366264D01*
X14965121Y2378303D01*
X14966696Y2389936D01*
X14969185Y2401976D01*
X14972588Y2415387D01*
X14979853Y2440076D01*
X14980310Y2442260D01*
X14980056Y2444191D01*
X14978938Y2446020D01*
X14976703Y2447848D01*
X14973147Y2449830D01*
X14968016Y2452116D01*
X14952319Y2458059D01*
X14922652Y2468829D01*
X14892477Y2459634D01*
X14873782Y2453081D01*
X14855799Y2446274D01*
X14844115Y2441295D01*
X14842388Y2440178D01*
X14837054Y2410460D01*
X14835479Y2400401D01*
X14834158Y2389174D01*
X14833142Y2377135D01*
X14832025Y2351227D01*
X14832076Y2324354D01*
X14832533Y2311095D01*
X14833295Y2298242D01*
X14834311Y2286000D01*
X14835682Y2274570D01*
X14837308Y2264156D01*
X14839696Y2251913D01*
X14842439Y2239721D01*
X14845588Y2227681D01*
X14849094Y2215743D01*
X14852954Y2203907D01*
X14857120Y2192172D01*
X14861692Y2180640D01*
X14866569Y2169210D01*
X14871801Y2157933D01*
X14877338Y2146808D01*
X14883231Y2135835D01*
X14889378Y2125065D01*
X14895880Y2114448D01*
X14902688Y2103983D01*
X14909800Y2093772D01*
X14917216Y2083714D01*
X14924887Y2073910D01*
X14932863Y2064308D01*
X14941092Y2054910D01*
X14949627Y2045716D01*
X14958415Y2036775D01*
X14967508Y2028088D01*
X14976805Y2019655D01*
X14986355Y2011476D01*
X14996160Y2003501D01*
X15006218Y1995881D01*
X15016530Y1988515D01*
X15027046Y1981403D01*
X15037765Y1974596D01*
X15048738Y1968093D01*
X15059913Y1961896D01*
X15071293Y1956003D01*
X15083129Y1950313D01*
X15095118Y1944979D01*
X15107208Y1939950D01*
X15119400Y1935276D01*
X15131643Y1930958D01*
X15143937Y1926996D01*
X15156281Y1923389D01*
X15168676Y1920138D01*
X15181021Y1917293D01*
X15193314Y1914804D01*
X15205557Y1912721D01*
X15217698Y1910994D01*
X15229738Y1909724D01*
X15241676Y1908810D01*
X15253462Y1908302D01*
X15265095Y1908200D01*
X15278709Y1908708D01*
X15292019Y1909724D01*
X15303500Y1911197D01*
X15311628Y1912924D01*
X15318028Y1915007D01*
X15330322Y1919833D01*
X15342006Y1925472D01*
X15352928Y1931924D01*
X15358160Y1935429D01*
X15368066Y1942998D01*
X15377210Y1951278D01*
X15385542Y1960270D01*
X15393111Y1969922D01*
X15396565Y1974951D01*
X15399816Y1980184D01*
X15405658Y1991004D01*
X15408249Y1996643D01*
X15412719Y2008327D01*
X15414650Y2014321D01*
X15416326Y2020468D01*
X15417749Y2026767D01*
X15418917Y2033117D01*
X15420492Y2045868D01*
X15421152Y2058009D01*
X15421152Y2063953D01*
X15420441Y2075586D01*
X15418816Y2086813D01*
X15417698Y2092299D01*
X15414751Y2103018D01*
X15410891Y2113381D01*
X15406116Y2123389D01*
X15400426Y2133041D01*
X15393822Y2142388D01*
X15386304Y2151380D01*
X15377871Y2160066D01*
X15368473Y2168499D01*
X15358770Y2176119D01*
X15348966Y2182723D01*
X15338907Y2188362D01*
X15333726Y2190851D01*
X15323007Y2195169D01*
X15311678Y2198725D01*
X15299537Y2201570D01*
X15286482Y2203754D01*
X15247264Y2209342D01*
X15242082Y2210257D01*
X15236850Y2211578D01*
X15231516Y2213254D01*
X15226182Y2215286D01*
X15215514Y2220315D01*
X15204998Y2226564D01*
X15194788Y2233828D01*
X15189860Y2237790D01*
X15180411Y2246376D01*
X15171724Y2255672D01*
X15167762Y2260498D01*
X15164003Y2265527D01*
X15160548Y2270607D01*
X15157348Y2275789D01*
X15154503Y2281072D01*
X15152166Y2286000D01*
X15148204Y2296312D01*
X15145257Y2307082D01*
X15144089Y2312619D01*
X15142514Y2323947D01*
X15141905Y2335377D01*
X15142210Y2346909D01*
X15143480Y2358390D01*
X15145613Y2369667D01*
X15147036Y2375204D01*
X15150541Y2385923D01*
X15154960Y2396185D01*
X15157500Y2401112D01*
X15163241Y2410409D01*
X15173960Y2425852D01*
X15157805Y2441702D01*
X15153081Y2445918D01*
X15148407Y2449677D01*
X15143683Y2453132D01*
X15138907Y2456180D01*
X15133980Y2458974D01*
X15128849Y2461412D01*
X15123464Y2463647D01*
X15117826Y2465628D01*
X15105380Y2469032D01*
X15087549Y2472639D01*
X15070785Y2475433D01*
G37*
G36*
X14714575Y2348738D02*
G01*
X14694966Y2325420D01*
X14687194Y2315413D01*
X14679269Y2304592D01*
X14672157Y2294229D01*
X14656003Y2268778D01*
X14661438Y2236571D01*
X14663674Y2224633D01*
X14668957Y2200910D01*
X14675205Y2177440D01*
X14678710Y2165756D01*
X14686432Y2142642D01*
X14690648Y2131212D01*
X14699792Y2108606D01*
X14709851Y2086305D01*
X14718030Y2069846D01*
X14723719Y2059025D01*
X14735810Y2037689D01*
X14745462Y2022043D01*
X14759076Y2001570D01*
X14773503Y1981657D01*
X14781022Y1971954D01*
X14796719Y1952904D01*
X14813330Y1934413D01*
X14830806Y1916582D01*
X14844420Y1903679D01*
X14858492Y1891131D01*
X14877897Y1875028D01*
X14898014Y1859686D01*
X14908326Y1852269D01*
X14929357Y1838096D01*
X14940076Y1831289D01*
X14956485Y1821484D01*
X14978735Y1809191D01*
X14995753Y1800504D01*
X15007234Y1794967D01*
X15024658Y1787143D01*
X15048179Y1777492D01*
X15066060Y1770888D01*
X15090140Y1762963D01*
X15102281Y1759356D01*
X15114473Y1756003D01*
X15138958Y1750060D01*
X15157450Y1746300D01*
X15186406Y1741271D01*
X15196566Y1739747D01*
X15201950Y1739188D01*
X15206116Y1740306D01*
X15213025Y1743405D01*
X15221712Y1747875D01*
X15236190Y1756511D01*
X15247061Y1763674D01*
X15257881Y1771192D01*
X15267432Y1778203D01*
X15276728Y1785670D01*
X15280843Y1789277D01*
X15283840Y1792478D01*
X15285872Y1795525D01*
X15287193Y1798777D01*
X15287904Y1802536D01*
X15288209Y1807210D01*
X15288107Y1821332D01*
X15286888Y1839518D01*
X15283738Y1863089D01*
X15250820Y1863140D01*
X15239695Y1863547D01*
X15228417Y1864258D01*
X15216987Y1865375D01*
X15205405Y1866849D01*
X15193721Y1868678D01*
X15181986Y1870862D01*
X15170099Y1873351D01*
X15158161Y1876196D01*
X15146172Y1879396D01*
X15134183Y1882902D01*
X15122144Y1886762D01*
X15110155Y1890877D01*
X15098166Y1895348D01*
X15086177Y1900123D01*
X15062454Y1910537D01*
X15050668Y1916175D01*
X15039035Y1922119D01*
X15027503Y1928317D01*
X15016124Y1934819D01*
X15004897Y1941575D01*
X14995296Y1947672D01*
X14986558Y1953818D01*
X14977262Y1960880D01*
X14967457Y1968804D01*
X14957298Y1977389D01*
X14946934Y1986534D01*
X14926259Y2005888D01*
X14916200Y2015794D01*
X14897455Y2035505D01*
X14889073Y2044954D01*
X14881453Y2053996D01*
X14874849Y2062480D01*
X14868296Y2071725D01*
X14861184Y2082393D01*
X14854326Y2093315D01*
X14847773Y2104339D01*
X14841524Y2115566D01*
X14835581Y2126894D01*
X14829942Y2138375D01*
X14824608Y2149957D01*
X14819579Y2161641D01*
X14814905Y2173427D01*
X14810536Y2185263D01*
X14806523Y2197150D01*
X14802866Y2209088D01*
X14799513Y2221077D01*
X14796566Y2233015D01*
X14793925Y2245004D01*
X14791690Y2256942D01*
X14789810Y2268829D01*
X14788286Y2280666D01*
X14787118Y2292502D01*
X14785289Y2323084D01*
X14784273Y2333752D01*
X14783511Y2337663D01*
X14782495Y2340762D01*
X14781174Y2343099D01*
X14779396Y2344826D01*
X14777110Y2346045D01*
X14774265Y2346807D01*
X14770760Y2347264D01*
G37*
G36*
X14637664Y2126538D02*
G01*
X14632279Y2125929D01*
X14625319Y2124202D01*
X14620036Y2122424D01*
X14616176Y2120239D01*
X14613534Y2117140D01*
X14611908Y2112873D01*
X14610994Y2106930D01*
X14610588Y2099056D01*
X14610588Y2082190D01*
X14611045Y2069134D01*
X14611959Y2056130D01*
X14613331Y2043125D01*
X14615109Y2030120D01*
X14617344Y2017217D01*
X14620036Y2004364D01*
X14623135Y1991614D01*
X14626691Y1978914D01*
X14630654Y1966315D01*
X14635022Y1953869D01*
X14639798Y1941575D01*
X14645030Y1929384D01*
X14650618Y1917395D01*
X14656612Y1905558D01*
X14663013Y1893925D01*
X14669820Y1882495D01*
X14676983Y1871268D01*
X14683638Y1861667D01*
X14690293Y1852980D01*
X14697963Y1843836D01*
X14706447Y1834286D01*
X14715540Y1824583D01*
X14725192Y1814830D01*
X14735098Y1805228D01*
X14745207Y1795932D01*
X14755266Y1787143D01*
X14765070Y1778965D01*
X14774570Y1771599D01*
X14783460Y1765198D01*
X14792909Y1759102D01*
X14803424Y1752803D01*
X14814092Y1746757D01*
X14824963Y1741068D01*
X14835936Y1735683D01*
X14847062Y1730603D01*
X14858339Y1725879D01*
X14869718Y1721408D01*
X14881250Y1717344D01*
X14892832Y1713585D01*
X14904567Y1710131D01*
X14916353Y1707032D01*
X14928240Y1704238D01*
X14940178Y1701800D01*
X14952218Y1699717D01*
X14964308Y1697989D01*
X14976398Y1696567D01*
X14988590Y1695500D01*
X15000782Y1694789D01*
X15013025Y1694434D01*
X15049195Y1694434D01*
X15056662Y1711909D01*
X15059558Y1719935D01*
X15059964Y1721916D01*
X15058339Y1723491D01*
X15053868Y1725879D01*
X15047213Y1728774D01*
X15027960Y1736140D01*
X15007437Y1744827D01*
X14979345Y1757680D01*
X14957145Y1768754D01*
X14935403Y1780641D01*
X14924735Y1786839D01*
X14908987Y1796491D01*
X14893544Y1806600D01*
X14883384Y1813509D01*
X14868448Y1824278D01*
X14849094Y1839163D01*
X14839594Y1846884D01*
X14825675Y1858721D01*
X14812111Y1870964D01*
X14798903Y1883562D01*
X14781885Y1900834D01*
X14765528Y1918766D01*
X14753691Y1932533D01*
X14738553Y1951431D01*
X14724126Y1970836D01*
X14710460Y1990801D01*
X14697557Y2011222D01*
X14691360Y2021636D01*
X14682469Y2037435D01*
X14671344Y2058924D01*
X14663521Y2075332D01*
X14653869Y2097532D01*
X14645792Y2116886D01*
X14641677Y2124100D01*
G37*
G36*
X14993315Y4460494D02*
G01*
X14912340Y4460290D01*
X14835632Y4459833D01*
X14773605Y4459173D01*
X14719706Y4458360D01*
X14676119Y4457344D01*
X14645081Y4456176D01*
X14635022Y4455464D01*
X14628926Y4454753D01*
X14622526Y4453026D01*
X14611756Y4449267D01*
X14601342Y4444695D01*
X14591334Y4439361D01*
X14581733Y4433265D01*
X14572640Y4426458D01*
X14564055Y4419041D01*
X14559940Y4415129D01*
X14552218Y4406798D01*
X14545106Y4397908D01*
X14538706Y4388561D01*
X14532965Y4378706D01*
X14527987Y4368444D01*
X14523821Y4357827D01*
X14522043Y4352391D01*
X14520316Y4345990D01*
X14519605Y4339894D01*
X14518284Y4316069D01*
X14517217Y4278528D01*
X14516303Y4229506D01*
X14515592Y4171238D01*
X14514742Y4029456D01*
X14566544Y4029456D01*
X14566595Y4035044D01*
X14567306Y4045051D01*
X14568373Y4053941D01*
X14569897Y4062729D01*
X14571878Y4071416D01*
X14574266Y4080001D01*
X14577009Y4088434D01*
X14580209Y4096816D01*
X14583816Y4105097D01*
X14587778Y4113225D01*
X14592147Y4121251D01*
X14596922Y4129125D01*
X14602002Y4136948D01*
X14607489Y4144568D01*
X14616328Y4155795D01*
X14622678Y4163110D01*
X14629384Y4170324D01*
X14636394Y4177334D01*
X14643709Y4184243D01*
X14651329Y4190949D01*
X14659254Y4197553D01*
X14667534Y4204004D01*
X14676018Y4210253D01*
X14684857Y4216349D01*
X14693950Y4222292D01*
X14703298Y4228084D01*
X14712899Y4233672D01*
X14722805Y4239107D01*
X14743277Y4249420D01*
X14753844Y4254296D01*
X14775688Y4263491D01*
X14798344Y4271873D01*
X14809978Y4275785D01*
X14833803Y4282948D01*
X14858288Y4289298D01*
X14877084Y4293463D01*
X14902637Y4298238D01*
X14915591Y4300270D01*
X14935301Y4302912D01*
X14961920Y4305554D01*
X14988946Y4307230D01*
X15002611Y4307687D01*
X15016327Y4307890D01*
X15043962Y4307535D01*
X15057882Y4306976D01*
X15085822Y4304995D01*
X15106853Y4302810D01*
X15127884Y4299966D01*
X15141956Y4297730D01*
X15156434Y4295089D01*
X15177719Y4290669D01*
X15191536Y4287367D01*
X15205100Y4283862D01*
X15218460Y4280052D01*
X15231465Y4276039D01*
X15244267Y4271772D01*
X15256713Y4267250D01*
X15268905Y4262526D01*
X15280843Y4257598D01*
X15292425Y4252417D01*
X15303703Y4247083D01*
X15314726Y4241495D01*
X15325394Y4235754D01*
X15335707Y4229760D01*
X15345765Y4223613D01*
X15355417Y4217314D01*
X15364764Y4210812D01*
X15373807Y4204157D01*
X15382443Y4197350D01*
X15390774Y4190390D01*
X15398699Y4183227D01*
X15406319Y4175963D01*
X15413532Y4168546D01*
X15420340Y4161028D01*
X15426842Y4153357D01*
X15432887Y4145584D01*
X15438577Y4137710D01*
X15443860Y4129684D01*
X15448788Y4121556D01*
X15453258Y4113377D01*
X15457322Y4105097D01*
X15460980Y4096715D01*
X15464231Y4088231D01*
X15467025Y4079748D01*
X15469362Y4071112D01*
X15471292Y4062476D01*
X15472816Y4053789D01*
X15473832Y4045000D01*
X15474391Y4036212D01*
X15474543Y4027373D01*
X15474188Y4018483D01*
X15473375Y4009593D01*
X15472054Y4000703D01*
X15470276Y3991762D01*
X15468041Y3982821D01*
X15465298Y3973880D01*
X15461996Y3964990D01*
X15458287Y3956050D01*
X15453563Y3946398D01*
X15450566Y3941216D01*
X15443707Y3930954D01*
X15435732Y3920947D01*
X15431414Y3916019D01*
X15422067Y3906570D01*
X15412008Y3897528D01*
X15401391Y3889146D01*
X15390266Y3881526D01*
X15384627Y3877970D01*
X15373096Y3871620D01*
X15361513Y3866286D01*
X15355773Y3864000D01*
X15349982Y3862019D01*
X15329154Y3856736D01*
X15323312Y3854348D01*
X15320060Y3851148D01*
X15318435Y3846626D01*
X15315692Y3834942D01*
X15312542Y3823462D01*
X15308986Y3812235D01*
X15305074Y3801160D01*
X15298521Y3785057D01*
X15293644Y3774592D01*
X15288513Y3764381D01*
X15282976Y3754424D01*
X15277134Y3744722D01*
X15270988Y3735273D01*
X15264485Y3726078D01*
X15257729Y3717188D01*
X15250668Y3708552D01*
X15243301Y3700221D01*
X15235682Y3692194D01*
X15227807Y3684422D01*
X15219680Y3676954D01*
X15211298Y3669842D01*
X15202712Y3663035D01*
X15193873Y3656533D01*
X15184831Y3650335D01*
X15175585Y3644493D01*
X15166136Y3639007D01*
X15156484Y3633825D01*
X15146680Y3629050D01*
X15136672Y3624579D01*
X15126563Y3620465D01*
X15116251Y3616756D01*
X15105837Y3613404D01*
X15095270Y3610457D01*
X15084602Y3607866D01*
X15073833Y3605682D01*
X15062911Y3603904D01*
X15051938Y3602532D01*
X15040863Y3601567D01*
X15029738Y3601008D01*
X15018562Y3600907D01*
X15007285Y3601212D01*
X14996007Y3601923D01*
X14984679Y3603091D01*
X14973300Y3604717D01*
X14961920Y3606800D01*
X14950541Y3609340D01*
X14938908Y3612438D01*
X14927122Y3616045D01*
X14915540Y3620109D01*
X14904212Y3624630D01*
X14893137Y3629558D01*
X14882266Y3634943D01*
X14871700Y3640734D01*
X14861387Y3646881D01*
X14851329Y3653485D01*
X14841524Y3660444D01*
X14832076Y3667760D01*
X14822881Y3675481D01*
X14814042Y3683508D01*
X14805456Y3691940D01*
X14797278Y3700678D01*
X14789353Y3709720D01*
X14781834Y3719118D01*
X14774672Y3728770D01*
X14767813Y3738778D01*
X14761413Y3749040D01*
X14755317Y3759606D01*
X14749627Y3770426D01*
X14744395Y3781501D01*
X14739518Y3792829D01*
X14735048Y3804412D01*
X14731034Y3816197D01*
X14727478Y3828186D01*
X14722906Y3846626D01*
X14721281Y3851148D01*
X14718030Y3854297D01*
X14712188Y3856736D01*
X14697303Y3860292D01*
X14686686Y3863340D01*
X14676323Y3867200D01*
X14666264Y3871772D01*
X14656511Y3877056D01*
X14647113Y3882948D01*
X14638070Y3889501D01*
X14629434Y3896614D01*
X14621256Y3904234D01*
X14613483Y3912412D01*
X14606219Y3920998D01*
X14599462Y3930040D01*
X14593265Y3939438D01*
X14587626Y3949192D01*
X14582597Y3959250D01*
X14578228Y3969562D01*
X14574469Y3980129D01*
X14571421Y3990898D01*
X14569084Y4001770D01*
X14567458Y4012793D01*
X14566646Y4023918D01*
X14566544Y4029456D01*
X14514742Y4029456D01*
X14514677Y3908704D01*
X14514931Y3828389D01*
X14515388Y3761079D01*
X14516049Y3699916D01*
X14516862Y3647186D01*
X14517928Y3605072D01*
X14519148Y3575812D01*
X14519808Y3566718D01*
X14520570Y3561638D01*
X14522094Y3556152D01*
X14525853Y3545382D01*
X14530425Y3534918D01*
X14535759Y3524910D01*
X14541855Y3515309D01*
X14548612Y3506215D01*
X14556079Y3497630D01*
X14559991Y3493515D01*
X14568322Y3485794D01*
X14577212Y3478682D01*
X14586559Y3472281D01*
X14596414Y3466541D01*
X14606676Y3461562D01*
X14617293Y3457397D01*
X14622729Y3455619D01*
X14629079Y3453892D01*
X14635124Y3453180D01*
X14658898Y3451961D01*
X14696490Y3450894D01*
X14745665Y3450031D01*
X14804085Y3449320D01*
X14948865Y3448558D01*
X15085720Y3448558D01*
X15231618Y3449370D01*
X15291003Y3450082D01*
X15341346Y3450945D01*
X15380360Y3452012D01*
X15405862Y3453231D01*
X15412872Y3453942D01*
X15414751Y3454298D01*
X15425470Y3457651D01*
X15430703Y3459632D01*
X15440913Y3464255D01*
X15450769Y3469640D01*
X15460218Y3475786D01*
X15469209Y3482594D01*
X15477693Y3490061D01*
X15485668Y3498087D01*
X15492984Y3506673D01*
X15499689Y3515817D01*
X15502839Y3520541D01*
X15508478Y3530346D01*
X15511068Y3535375D01*
X15515590Y3545738D01*
X15517571Y3551021D01*
X15520822Y3561842D01*
X15521584Y3566871D01*
X15522905Y3588816D01*
X15524022Y3624783D01*
X15524937Y3672484D01*
X15526207Y3794201D01*
X15526562Y3863746D01*
X15526664Y3981754D01*
X15526461Y4071467D01*
X15525394Y4201414D01*
X15524632Y4255363D01*
X15523616Y4298899D01*
X15522397Y4329887D01*
X15521736Y4339945D01*
X15521025Y4345990D01*
X15519298Y4352391D01*
X15515539Y4363212D01*
X15510967Y4373626D01*
X15505633Y4383684D01*
X15499537Y4393285D01*
X15492780Y4402429D01*
X15485363Y4411014D01*
X15477337Y4419041D01*
X15468752Y4426458D01*
X15459608Y4433265D01*
X15450057Y4439361D01*
X15439999Y4444695D01*
X15429585Y4449267D01*
X15418816Y4453026D01*
X15412415Y4454753D01*
X15406319Y4455464D01*
X15396260Y4456176D01*
X15365272Y4457344D01*
X15321686Y4458360D01*
X15267736Y4459173D01*
X15205710Y4459833D01*
X15137790Y4460240D01*
G37*
G36*
X14944851Y4207052D02*
G01*
X14940381Y4206798D01*
X14936419Y4205935D01*
X14932964Y4204462D01*
X14929916Y4202379D01*
X14927326Y4199534D01*
X14925141Y4195978D01*
X14923363Y4191609D01*
X14921941Y4186428D01*
X14920925Y4180382D01*
X14920163Y4173372D01*
X14919756Y4165447D01*
X14919604Y4156506D01*
X14919756Y4147565D01*
X14920163Y4139641D01*
X14920925Y4132681D01*
X14921941Y4126636D01*
X14923363Y4121454D01*
X14925141Y4117086D01*
X14927326Y4113479D01*
X14929916Y4110685D01*
X14932964Y4108551D01*
X14936419Y4107078D01*
X14940381Y4106265D01*
X14944851Y4105960D01*
X14948916Y4106621D01*
X14953437Y4108399D01*
X14957958Y4111040D01*
X14961869Y4114241D01*
X14964460Y4116984D01*
X14966391Y4119676D01*
X14967864Y4122674D01*
X14968880Y4126433D01*
X14969540Y4131310D01*
X14969947Y4137660D01*
X14970150Y4156506D01*
X14969998Y4165447D01*
X14969591Y4173372D01*
X14968829Y4180382D01*
X14967762Y4186428D01*
X14966391Y4191609D01*
X14964613Y4195978D01*
X14962428Y4199534D01*
X14959838Y4202379D01*
X14956790Y4204462D01*
X14953284Y4205935D01*
X14949322Y4206798D01*
G37*
G36*
X15020696Y4207052D02*
G01*
X15015819Y4206849D01*
X15011552Y4206240D01*
X15007894Y4205071D01*
X15004846Y4203242D01*
X15002306Y4200753D01*
X15000224Y4197502D01*
X14998547Y4193336D01*
X14997328Y4188206D01*
X14996413Y4182059D01*
X14995855Y4174794D01*
X14995499Y4166311D01*
X14995499Y4146753D01*
X14995855Y4138269D01*
X14996413Y4131005D01*
X14997328Y4124858D01*
X14998547Y4119727D01*
X15000224Y4115562D01*
X15002306Y4112260D01*
X15004846Y4109770D01*
X15007894Y4107992D01*
X15011552Y4106824D01*
X15015819Y4106164D01*
X15020696Y4105960D01*
X15024963Y4106468D01*
X15029637Y4107891D01*
X15034158Y4109923D01*
X15037968Y4112412D01*
X15040457Y4114596D01*
X15042388Y4116882D01*
X15043810Y4119676D01*
X15044775Y4123436D01*
X15045385Y4128566D01*
X15045740Y4135526D01*
X15045944Y4156506D01*
X15045537Y4174794D01*
X15044928Y4182059D01*
X15044013Y4188206D01*
X15042794Y4193336D01*
X15041168Y4197502D01*
X15039086Y4200753D01*
X15036546Y4203242D01*
X15033447Y4205071D01*
X15029789Y4206240D01*
X15025573Y4206849D01*
G37*
G36*
X15096490Y4207052D02*
G01*
X15092019Y4206798D01*
X15088057Y4205935D01*
X15084551Y4204462D01*
X15081504Y4202379D01*
X15078913Y4199534D01*
X15076779Y4195978D01*
X15074950Y4191609D01*
X15073579Y4186428D01*
X15072512Y4180382D01*
X15071750Y4173372D01*
X15071344Y4165447D01*
X15071191Y4156506D01*
X15071344Y4147565D01*
X15071750Y4139641D01*
X15072512Y4132681D01*
X15073579Y4126636D01*
X15074950Y4121454D01*
X15076779Y4117086D01*
X15078913Y4113479D01*
X15081504Y4110685D01*
X15084551Y4108551D01*
X15088057Y4107078D01*
X15092019Y4106265D01*
X15096490Y4105960D01*
X15100503Y4106621D01*
X15105075Y4108399D01*
X15109596Y4111040D01*
X15113457Y4114241D01*
X15116048Y4116984D01*
X15118029Y4119676D01*
X15119451Y4122674D01*
X15120518Y4126433D01*
X15121178Y4131310D01*
X15121534Y4137660D01*
X15121737Y4156506D01*
X15121636Y4165447D01*
X15121178Y4173372D01*
X15120467Y4180382D01*
X15119400Y4186428D01*
X15117978Y4191609D01*
X15116200Y4195978D01*
X15114016Y4199534D01*
X15111425Y4202379D01*
X15108377Y4204462D01*
X15104922Y4205935D01*
X15100960Y4206798D01*
G37*
G36*
X15020696Y4081627D02*
G01*
X14986406Y4081322D01*
X14954656Y4080510D01*
X14928037Y4079138D01*
X14917470Y4078224D01*
X14909088Y4077157D01*
X14903297Y4075988D01*
X14901468Y4075379D01*
X14900351Y4074668D01*
X14899690Y4073601D01*
X14899030Y4071772D01*
X14897862Y4065930D01*
X14896846Y4057599D01*
X14895931Y4046982D01*
X14894560Y4020362D01*
X14893696Y3988663D01*
X14893442Y3945686D01*
X14893748Y3917238D01*
X14957806Y3917238D01*
X14958212Y3921506D01*
X14959584Y3925773D01*
X14961971Y3930091D01*
X14966543Y3936136D01*
X14967559Y3938625D01*
X14968372Y3941876D01*
X14969032Y3945991D01*
X14969896Y3957015D01*
X14970150Y3972306D01*
X14970150Y4004868D01*
X14986812Y4004716D01*
X14990368Y4004157D01*
X14993772Y4002938D01*
X14997379Y4000957D01*
X15001443Y3997960D01*
X15011958Y3988308D01*
X15028265Y3972153D01*
X15036292Y3964635D01*
X15042134Y3959555D01*
X15045029Y3957726D01*
X15047366Y3959250D01*
X15047315Y3963365D01*
X15045080Y3969054D01*
X15037663Y3980383D01*
X15035580Y3985260D01*
X15034513Y3990086D01*
X15034412Y3994759D01*
X15035123Y3999229D01*
X15036647Y4003344D01*
X15038832Y4007053D01*
X15041626Y4010304D01*
X15044928Y4012946D01*
X15048636Y4014978D01*
X15052700Y4016248D01*
X15056967Y4016705D01*
X15061438Y4016248D01*
X15065959Y4014774D01*
X15070429Y4012234D01*
X15074849Y4008526D01*
X15078557Y4004310D01*
X15081250Y4000042D01*
X15082926Y3995826D01*
X15083536Y3991559D01*
X15083180Y3987292D01*
X15081808Y3982974D01*
X15079421Y3978656D01*
X15074798Y3972509D01*
X15073782Y3970070D01*
X15072969Y3966819D01*
X15072309Y3962704D01*
X15071445Y3951630D01*
X15071191Y3936390D01*
X15071191Y3903776D01*
X15054529Y3903929D01*
X15050973Y3904538D01*
X15047569Y3905758D01*
X15043962Y3907739D01*
X15039949Y3910736D01*
X15035174Y3914901D01*
X15013076Y3936542D01*
X15005050Y3944061D01*
X14999207Y3949141D01*
X14996363Y3950970D01*
X14994026Y3949446D01*
X14994026Y3945331D01*
X14996261Y3939641D01*
X15003475Y3928618D01*
X15005507Y3923842D01*
X15006624Y3919067D01*
X15006777Y3914343D01*
X15006116Y3909822D01*
X15004592Y3905504D01*
X15002306Y3901592D01*
X14999309Y3898087D01*
X14995601Y3895140D01*
X14991232Y3892804D01*
X14986304Y3891279D01*
X14980818Y3890518D01*
X14978278Y3891279D01*
X14974671Y3893362D01*
X14970455Y3896563D01*
X14966188Y3900525D01*
X14962581Y3904640D01*
X14959990Y3908806D01*
X14958415Y3912971D01*
X14957806Y3917238D01*
X14893748Y3917238D01*
X14894509Y3888333D01*
X14895931Y3861663D01*
X14896795Y3851097D01*
X14897862Y3842715D01*
X14899030Y3836924D01*
X14899690Y3835095D01*
X14900351Y3833977D01*
X14901367Y3833418D01*
X14906091Y3832351D01*
X14913965Y3831336D01*
X14937587Y3829558D01*
X14968982Y3828135D01*
X15004846Y3827068D01*
X15041829Y3826560D01*
X15068346Y3826459D01*
X15099385Y3826916D01*
X15112136Y3827322D01*
X15122499Y3827983D01*
X15130068Y3828745D01*
X15134437Y3829710D01*
X15138095Y3831640D01*
X15139720Y3832860D01*
X15141143Y3834434D01*
X15142413Y3836314D01*
X15143530Y3838651D01*
X15144496Y3841546D01*
X15146070Y3849115D01*
X15147137Y3859682D01*
X15147848Y3873804D01*
X15148204Y3892092D01*
X15148102Y3943451D01*
X15147594Y3998772D01*
X15146934Y4034891D01*
X15145918Y4056786D01*
X15145207Y4063593D01*
X15144292Y4068419D01*
X15143175Y4071620D01*
X15141803Y4073855D01*
X15140990Y4074718D01*
X15139924Y4075379D01*
X15138095Y4076039D01*
X15132253Y4077208D01*
X15123922Y4078224D01*
X15113304Y4079138D01*
X15086685Y4080510D01*
X15054935Y4081322D01*
G37*
G36*
X14818512Y4055414D02*
G01*
X14809571Y4055313D01*
X14801646Y4054856D01*
X14794687Y4054144D01*
X14788642Y4053078D01*
X14783460Y4051655D01*
X14779091Y4049877D01*
X14775535Y4047693D01*
X14772690Y4045102D01*
X14770607Y4042105D01*
X14769134Y4038600D01*
X14768271Y4034637D01*
X14768017Y4030167D01*
X14768271Y4025696D01*
X14769134Y4021734D01*
X14770607Y4018229D01*
X14772690Y4015181D01*
X14775535Y4012590D01*
X14779091Y4010456D01*
X14783460Y4008628D01*
X14788642Y4007256D01*
X14794687Y4006189D01*
X14801646Y4005427D01*
X14809571Y4005021D01*
X14829129Y4004919D01*
X14837410Y4005072D01*
X14843760Y4005478D01*
X14848636Y4006138D01*
X14852396Y4007154D01*
X14855393Y4008628D01*
X14858085Y4010609D01*
X14860778Y4013149D01*
X14863978Y4017060D01*
X14866619Y4021582D01*
X14868398Y4026103D01*
X14869058Y4030167D01*
X14868804Y4034637D01*
X14867940Y4038600D01*
X14866467Y4042105D01*
X14864384Y4045102D01*
X14861540Y4047693D01*
X14857984Y4049877D01*
X14853615Y4051655D01*
X14848433Y4053078D01*
X14842388Y4054144D01*
X14835378Y4054856D01*
X14827453Y4055313D01*
G37*
G36*
X15222829Y4055414D02*
G01*
X15213888Y4055313D01*
X15205963Y4054856D01*
X15198953Y4054144D01*
X15192908Y4053078D01*
X15187726Y4051655D01*
X15183357Y4049877D01*
X15179801Y4047693D01*
X15176957Y4045102D01*
X15174874Y4042105D01*
X15173401Y4038600D01*
X15172537Y4034637D01*
X15172283Y4030167D01*
X15172537Y4025696D01*
X15173401Y4021734D01*
X15174874Y4018229D01*
X15176957Y4015181D01*
X15179801Y4012590D01*
X15183357Y4010456D01*
X15187726Y4008628D01*
X15192908Y4007256D01*
X15198953Y4006189D01*
X15205963Y4005427D01*
X15213888Y4005021D01*
X15233396Y4004919D01*
X15241676Y4005072D01*
X15248026Y4005478D01*
X15252903Y4006138D01*
X15256662Y4007154D01*
X15259659Y4008628D01*
X15262351Y4010609D01*
X15265095Y4013149D01*
X15268295Y4017060D01*
X15270937Y4021582D01*
X15272664Y4026103D01*
X15273324Y4030167D01*
X15273070Y4034637D01*
X15272207Y4038600D01*
X15270734Y4042105D01*
X15268651Y4045102D01*
X15265806Y4047693D01*
X15262250Y4049877D01*
X15257881Y4051655D01*
X15252700Y4053078D01*
X15246654Y4054144D01*
X15239695Y4054856D01*
X15231770Y4055313D01*
G37*
G36*
X14822779Y3980738D02*
G01*
X14805406Y3980230D01*
X14797836Y3979621D01*
X14791334Y3978808D01*
X14785746Y3977741D01*
X14781072Y3976319D01*
X14777212Y3974541D01*
X14774113Y3972356D01*
X14771776Y3969765D01*
X14769998Y3966667D01*
X14768880Y3963111D01*
X14768220Y3958996D01*
X14768017Y3954322D01*
X14768220Y3949649D01*
X14768880Y3945534D01*
X14769998Y3941978D01*
X14771776Y3938930D01*
X14774113Y3936339D01*
X14777212Y3934155D01*
X14781072Y3932377D01*
X14785746Y3930954D01*
X14791334Y3929887D01*
X14797836Y3929075D01*
X14805406Y3928465D01*
X14822017Y3927957D01*
X14835530Y3928160D01*
X14841067Y3928465D01*
X14845842Y3928973D01*
X14849805Y3929684D01*
X14853056Y3930548D01*
X14855545Y3931564D01*
X14859304Y3934053D01*
X14862505Y3937203D01*
X14865045Y3940962D01*
X14866975Y3945128D01*
X14868194Y3949547D01*
X14868651Y3954221D01*
X14868296Y3958894D01*
X14867128Y3963517D01*
X14865705Y3966972D01*
X14863978Y3969969D01*
X14861895Y3972509D01*
X14859355Y3974693D01*
X14856256Y3976522D01*
X14852599Y3977944D01*
X14848281Y3979062D01*
X14843201Y3979875D01*
X14837308Y3980434D01*
G37*
G36*
X15227046Y3980738D02*
G01*
X15209672Y3980230D01*
X15202103Y3979621D01*
X15195600Y3978808D01*
X15190012Y3977741D01*
X15185339Y3976319D01*
X15181478Y3974541D01*
X15178379Y3972356D01*
X15176042Y3969765D01*
X15174264Y3966667D01*
X15173147Y3963111D01*
X15172486Y3958996D01*
X15172283Y3954322D01*
X15172486Y3949649D01*
X15173147Y3945534D01*
X15174264Y3941978D01*
X15176042Y3938930D01*
X15178379Y3936339D01*
X15181478Y3934155D01*
X15185339Y3932377D01*
X15190012Y3930954D01*
X15195600Y3929887D01*
X15202103Y3929075D01*
X15209672Y3928465D01*
X15226284Y3927957D01*
X15239796Y3928160D01*
X15245334Y3928465D01*
X15250109Y3928973D01*
X15254122Y3929684D01*
X15257322Y3930548D01*
X15259812Y3931564D01*
X15263571Y3934053D01*
X15266771Y3937203D01*
X15269362Y3940962D01*
X15271242Y3945128D01*
X15272461Y3949547D01*
X15272918Y3954221D01*
X15272562Y3958894D01*
X15271394Y3963517D01*
X15269972Y3966972D01*
X15268244Y3969969D01*
X15266162Y3972509D01*
X15263622Y3974693D01*
X15260523Y3976522D01*
X15256865Y3977944D01*
X15252547Y3979062D01*
X15247467Y3979875D01*
X15241574Y3980434D01*
G37*
G36*
X14818512Y3903776D02*
G01*
X14799665Y3903573D01*
X14793315Y3903218D01*
X14788438Y3902557D01*
X14784679Y3901541D01*
X14781682Y3900068D01*
X14778990Y3898087D01*
X14776246Y3895547D01*
X14772792Y3891483D01*
X14770354Y3887266D01*
X14768880Y3882898D01*
X14768372Y3878529D01*
X14768880Y3874160D01*
X14770354Y3869791D01*
X14772792Y3865575D01*
X14776246Y3861511D01*
X14779142Y3859326D01*
X14783003Y3857396D01*
X14787676Y3855770D01*
X14793010Y3854450D01*
X14798903Y3853434D01*
X14805202Y3852672D01*
X14811806Y3852265D01*
X14818512Y3852113D01*
X14825268Y3852265D01*
X14831822Y3852672D01*
X14838172Y3853434D01*
X14844064Y3854450D01*
X14849398Y3855770D01*
X14854072Y3857396D01*
X14857933Y3859326D01*
X14860778Y3861511D01*
X14863978Y3865422D01*
X14866619Y3869944D01*
X14868398Y3874465D01*
X14869058Y3878529D01*
X14868804Y3882999D01*
X14867940Y3886962D01*
X14866467Y3890467D01*
X14864384Y3893464D01*
X14861540Y3896055D01*
X14857984Y3898239D01*
X14853615Y3900017D01*
X14848433Y3901440D01*
X14842388Y3902506D01*
X14835378Y3903218D01*
X14827453Y3903675D01*
G37*
G36*
X15222829Y3903776D02*
G01*
X15203982Y3903573D01*
X15197582Y3903218D01*
X15192705Y3902557D01*
X15188946Y3901541D01*
X15185948Y3900068D01*
X15183256Y3898087D01*
X15180563Y3895547D01*
X15177109Y3891483D01*
X15174620Y3887266D01*
X15173147Y3882898D01*
X15172639Y3878529D01*
X15173147Y3874160D01*
X15174620Y3869791D01*
X15177109Y3865575D01*
X15180563Y3861511D01*
X15183459Y3859326D01*
X15187269Y3857396D01*
X15191943Y3855770D01*
X15197277Y3854450D01*
X15203220Y3853434D01*
X15209519Y3852672D01*
X15216073Y3852265D01*
X15222829Y3852113D01*
X15229535Y3852265D01*
X15236139Y3852672D01*
X15242438Y3853434D01*
X15248331Y3854450D01*
X15253716Y3855770D01*
X15258338Y3857396D01*
X15262199Y3859326D01*
X15265095Y3861511D01*
X15268295Y3865422D01*
X15270937Y3869944D01*
X15272664Y3874465D01*
X15273324Y3878529D01*
X15273070Y3882999D01*
X15272207Y3886962D01*
X15270734Y3890467D01*
X15268651Y3893464D01*
X15265806Y3896055D01*
X15262250Y3898239D01*
X15257881Y3900017D01*
X15252700Y3901440D01*
X15246654Y3902506D01*
X15239695Y3903218D01*
X15231770Y3903675D01*
G37*
G36*
X14944851Y3802735D02*
G01*
X14940381Y3802430D01*
X14936419Y3801618D01*
X14932964Y3800144D01*
X14929916Y3798011D01*
X14927326Y3795217D01*
X14925141Y3791610D01*
X14923363Y3787292D01*
X14921941Y3782060D01*
X14920925Y3776014D01*
X14920163Y3769055D01*
X14919756Y3761130D01*
X14919604Y3752189D01*
X14919756Y3743248D01*
X14920163Y3735324D01*
X14920925Y3728313D01*
X14921941Y3722268D01*
X14923363Y3717086D01*
X14925141Y3712718D01*
X14927326Y3709162D01*
X14929916Y3706317D01*
X14932964Y3704234D01*
X14936419Y3702761D01*
X14940381Y3701897D01*
X14944851Y3701643D01*
X14948916Y3702304D01*
X14953437Y3704031D01*
X14957958Y3706672D01*
X14961869Y3709873D01*
X14964460Y3712616D01*
X14966391Y3715308D01*
X14967864Y3718306D01*
X14968880Y3722065D01*
X14969540Y3726942D01*
X14969947Y3733292D01*
X14970150Y3752189D01*
X14969998Y3761130D01*
X14969591Y3769055D01*
X14968829Y3776014D01*
X14967762Y3782060D01*
X14966391Y3787292D01*
X14964613Y3791610D01*
X14962428Y3795217D01*
X14959838Y3798011D01*
X14956790Y3800144D01*
X14953284Y3801618D01*
X14949322Y3802430D01*
G37*
G36*
X15020696Y3802735D02*
G01*
X15015819Y3802532D01*
X15011552Y3801872D01*
X15007894Y3800703D01*
X15004846Y3798925D01*
X15002306Y3796436D01*
X15000224Y3793134D01*
X14998547Y3788968D01*
X14997328Y3783888D01*
X14996413Y3777691D01*
X14995855Y3770426D01*
X14995499Y3761943D01*
X14995499Y3742385D01*
X14995855Y3733901D01*
X14996413Y3726637D01*
X14997328Y3720490D01*
X14998547Y3715359D01*
X15000224Y3711194D01*
X15002306Y3707942D01*
X15004846Y3705453D01*
X15007894Y3703624D01*
X15011552Y3702456D01*
X15015819Y3701846D01*
X15020696Y3701643D01*
X15024963Y3702151D01*
X15029637Y3703523D01*
X15034158Y3705555D01*
X15037968Y3708044D01*
X15040457Y3710228D01*
X15042388Y3712514D01*
X15043810Y3715308D01*
X15044775Y3719068D01*
X15045385Y3724198D01*
X15045740Y3731158D01*
X15045944Y3752189D01*
X15045537Y3770426D01*
X15044928Y3777691D01*
X15044013Y3783888D01*
X15042794Y3788968D01*
X15041168Y3793134D01*
X15039086Y3796436D01*
X15036546Y3798925D01*
X15033447Y3800703D01*
X15029789Y3801872D01*
X15025573Y3802532D01*
G37*
G36*
X15096490Y3802735D02*
G01*
X15092019Y3802430D01*
X15088057Y3801618D01*
X15084551Y3800144D01*
X15081504Y3798011D01*
X15078913Y3795217D01*
X15076779Y3791610D01*
X15074950Y3787292D01*
X15073579Y3782060D01*
X15072512Y3776014D01*
X15071750Y3769055D01*
X15071344Y3761130D01*
X15071191Y3752189D01*
X15071344Y3743248D01*
X15071750Y3735324D01*
X15072512Y3728313D01*
X15073579Y3722268D01*
X15074950Y3717086D01*
X15076779Y3712718D01*
X15078913Y3709162D01*
X15081504Y3706317D01*
X15084551Y3704234D01*
X15088057Y3702761D01*
X15092019Y3701897D01*
X15096490Y3701643D01*
X15100503Y3702304D01*
X15105075Y3704031D01*
X15109596Y3706672D01*
X15113457Y3709873D01*
X15116048Y3712616D01*
X15118029Y3715308D01*
X15119451Y3718306D01*
X15120518Y3722065D01*
X15121178Y3726942D01*
X15121534Y3733292D01*
X15121737Y3752189D01*
X15121636Y3761130D01*
X15121178Y3769055D01*
X15120467Y3776014D01*
X15119400Y3782060D01*
X15117978Y3787292D01*
X15116200Y3791610D01*
X15114016Y3795217D01*
X15111425Y3798011D01*
X15108377Y3800144D01*
X15104922Y3801618D01*
X15100960Y3802430D01*
G37*
G36*
X14514474Y4711801D02*
G01*
X14514474Y4630978D01*
X14534591Y4630978D01*
X14534743Y4643780D01*
X14535810Y4656429D01*
X14537740Y4668316D01*
X14539061Y4673854D01*
X14540636Y4679035D01*
X14542414Y4683760D01*
X14544446Y4688027D01*
X14546732Y4691735D01*
X14548916Y4694123D01*
X14551863Y4696206D01*
X14555571Y4697984D01*
X14559889Y4699508D01*
X14564766Y4700727D01*
X14570049Y4701692D01*
X14575790Y4702403D01*
X14587931Y4703013D01*
X14595074Y4702860D01*
X14839391Y4702759D01*
X14844979Y4702200D01*
X14848992Y4700879D01*
X14851634Y4698593D01*
X14853107Y4695037D01*
X14853666Y4689906D01*
X14853361Y4682947D01*
X14849500Y4644948D01*
X14870887Y4682185D01*
X14875154Y4688941D01*
X14878964Y4694174D01*
X14882418Y4697933D01*
X14885669Y4700168D01*
X14888768Y4700930D01*
X14891918Y4700168D01*
X14895118Y4697933D01*
X14898573Y4694174D01*
X14902383Y4688941D01*
X14906650Y4682185D01*
X14928037Y4644948D01*
X14924227Y4682642D01*
X14923973Y4689449D01*
X14924379Y4694529D01*
X14925649Y4698187D01*
X14927884Y4700625D01*
X14931186Y4702048D01*
X14935758Y4702708D01*
X14946122Y4702810D01*
X14949830Y4702505D01*
X14952878Y4701743D01*
X14955316Y4700270D01*
X14957247Y4697984D01*
X14958720Y4694580D01*
X14959787Y4689957D01*
X14960549Y4683810D01*
X14961006Y4676038D01*
X14961311Y4654550D01*
X14961362Y4578096D01*
X14937943Y4578096D01*
X14931186Y4578400D01*
X14925497Y4579366D01*
X14920620Y4581296D01*
X14916353Y4584344D01*
X14912441Y4588662D01*
X14908733Y4594504D01*
X14904974Y4602022D01*
X14900910Y4611420D01*
X14887295Y4644745D01*
X14874951Y4618075D01*
X14870328Y4607204D01*
X14866772Y4597298D01*
X14864588Y4589475D01*
X14864283Y4584801D01*
X14862606Y4582160D01*
X14856968Y4580077D01*
X14848230Y4578604D01*
X14837206Y4578096D01*
X14808555Y4578096D01*
X14808555Y4702860D01*
X14595074Y4702860D01*
X14606930Y4701895D01*
X14613077Y4701032D01*
X14619071Y4699914D01*
X14624710Y4698542D01*
X14629993Y4696968D01*
X14634819Y4695088D01*
X14639086Y4693005D01*
X14642744Y4690668D01*
X14645640Y4688128D01*
X14648637Y4684522D01*
X14651278Y4680407D01*
X14653666Y4675784D01*
X14655698Y4670755D01*
X14657476Y4665370D01*
X14658949Y4659731D01*
X14660118Y4653838D01*
X14660981Y4647793D01*
X14661540Y4641646D01*
X14661896Y4629251D01*
X14661642Y4623155D01*
X14660321Y4611420D01*
X14659254Y4605883D01*
X14657674Y4599889D01*
X14669617Y4599889D01*
X14670684Y4602784D01*
X14673021Y4606290D01*
X14676475Y4610557D01*
X14680234Y4614672D01*
X14683486Y4617567D01*
X14686584Y4619244D01*
X14689734Y4619701D01*
X14693290Y4618888D01*
X14697405Y4616856D01*
X14702485Y4613503D01*
X14714118Y4605172D01*
X14719503Y4602327D01*
X14724786Y4600346D01*
X14729968Y4599178D01*
X14734946Y4598771D01*
X14739721Y4599178D01*
X14744242Y4600295D01*
X14748459Y4602175D01*
X14752370Y4604715D01*
X14755876Y4607966D01*
X14758974Y4611878D01*
X14761565Y4616450D01*
X14763699Y4621580D01*
X14765274Y4627321D01*
X14766239Y4633620D01*
X14766544Y4640478D01*
X14766239Y4647285D01*
X14765274Y4653584D01*
X14763699Y4659325D01*
X14761616Y4664456D01*
X14758974Y4669028D01*
X14755926Y4672939D01*
X14752421Y4676190D01*
X14748510Y4678781D01*
X14744344Y4680661D01*
X14739823Y4681829D01*
X14735048Y4682236D01*
X14730120Y4681931D01*
X14724989Y4680762D01*
X14719757Y4678832D01*
X14714423Y4676038D01*
X14709038Y4672380D01*
X14703450Y4668266D01*
X14698675Y4665268D01*
X14694509Y4663287D01*
X14690801Y4662322D01*
X14687448Y4662322D01*
X14684248Y4663338D01*
X14681047Y4665319D01*
X14677694Y4668215D01*
X14675104Y4671263D01*
X14673580Y4674311D01*
X14673072Y4677359D01*
X14673529Y4680356D01*
X14674900Y4683252D01*
X14677085Y4686096D01*
X14680133Y4688738D01*
X14683943Y4691278D01*
X14688515Y4693666D01*
X14693696Y4695799D01*
X14699538Y4697679D01*
X14705990Y4699304D01*
X14712899Y4700625D01*
X14720366Y4701641D01*
X14728190Y4702302D01*
X14736470Y4702556D01*
X14742668Y4702454D01*
X14748662Y4701997D01*
X14754402Y4701133D01*
X14759838Y4700016D01*
X14765019Y4698492D01*
X14769896Y4696663D01*
X14774468Y4694529D01*
X14778786Y4692091D01*
X14782800Y4689297D01*
X14786508Y4686249D01*
X14789861Y4682896D01*
X14792909Y4679238D01*
X14795601Y4675327D01*
X14797989Y4671110D01*
X14800021Y4666640D01*
X14801697Y4661916D01*
X14803018Y4656937D01*
X14803983Y4651705D01*
X14804542Y4646218D01*
X14804745Y4640478D01*
X14804542Y4634890D01*
X14803882Y4629556D01*
X14802764Y4624374D01*
X14801291Y4619447D01*
X14799411Y4614722D01*
X14797125Y4610303D01*
X14794534Y4606086D01*
X14791537Y4602124D01*
X14788286Y4598416D01*
X14784679Y4595012D01*
X14780768Y4591812D01*
X14776602Y4588967D01*
X14772182Y4586376D01*
X14767509Y4584090D01*
X14762632Y4582109D01*
X14757501Y4580432D01*
X14752218Y4579112D01*
X14746732Y4578096D01*
X14741042Y4577384D01*
X14735251Y4577029D01*
X14729307Y4577029D01*
X14723262Y4577384D01*
X14717166Y4578096D01*
X14710918Y4579213D01*
X14704618Y4580636D01*
X14698268Y4582515D01*
X14691918Y4584750D01*
X14685518Y4587392D01*
X14679269Y4590288D01*
X14674596Y4592777D01*
X14671497Y4595063D01*
X14669871Y4597400D01*
X14669617Y4599889D01*
X14657674Y4599889D01*
X14656409Y4595926D01*
X14654580Y4591558D01*
X14652498Y4587697D01*
X14650212Y4584395D01*
X14647621Y4581702D01*
X14644878Y4579721D01*
X14641830Y4578502D01*
X14638578Y4578096D01*
X14630044Y4578400D01*
X14626793Y4579010D01*
X14624151Y4580178D01*
X14622119Y4581906D01*
X14620544Y4584446D01*
X14619376Y4587900D01*
X14618563Y4592421D01*
X14618055Y4598111D01*
X14617598Y4613706D01*
X14617395Y4633315D01*
X14616887Y4642053D01*
X14615972Y4650028D01*
X14614804Y4657242D01*
X14613280Y4663643D01*
X14611451Y4669231D01*
X14609318Y4674006D01*
X14606930Y4677867D01*
X14604288Y4680915D01*
X14601342Y4683048D01*
X14598243Y4684268D01*
X14594840Y4684572D01*
X14591284Y4683912D01*
X14587474Y4682286D01*
X14583511Y4679746D01*
X14579396Y4676140D01*
X14576145Y4672431D01*
X14573554Y4668113D01*
X14571522Y4663033D01*
X14570049Y4657039D01*
X14569084Y4649978D01*
X14568678Y4641697D01*
X14568728Y4632096D01*
X14569948Y4607458D01*
X14570201Y4597146D01*
X14569795Y4589576D01*
X14568627Y4584293D01*
X14566493Y4580940D01*
X14563191Y4579061D01*
X14558670Y4578248D01*
X14552676Y4578096D01*
X14550186Y4578502D01*
X14547850Y4579772D01*
X14545716Y4581855D01*
X14543735Y4584598D01*
X14541957Y4588002D01*
X14540382Y4592015D01*
X14538960Y4596536D01*
X14537740Y4601464D01*
X14535861Y4612538D01*
X14534794Y4624679D01*
X14534591Y4630978D01*
X14514474Y4630978D01*
X14514474Y4569155D01*
X14972792Y4569155D01*
X14972792Y4711801D01*
G37*
G36*
X15425470Y4703572D02*
G01*
X15423286Y4702911D01*
X15421356Y4701540D01*
X15419578Y4699508D01*
X15418054Y4696764D01*
X15416682Y4693361D01*
X15415564Y4689246D01*
X15414548Y4684420D01*
X15413126Y4672634D01*
X15412313Y4658004D01*
X15412059Y4640478D01*
X15412415Y4625492D01*
X15413380Y4612182D01*
X15414904Y4600600D01*
X15416834Y4590846D01*
X15419171Y4583023D01*
X15420390Y4579874D01*
X15421711Y4577181D01*
X15423083Y4575048D01*
X15424454Y4573473D01*
X15425826Y4572457D01*
X15427248Y4571949D01*
X15428620Y4572050D01*
X15429992Y4572711D01*
X15431363Y4573930D01*
X15432684Y4575810D01*
X15433903Y4578248D01*
X15435122Y4581347D01*
X15437256Y4589475D01*
X15438983Y4600194D01*
X15440253Y4613656D01*
X15442590Y4649216D01*
X15478861Y4607661D01*
X15489123Y4596638D01*
X15497962Y4588103D01*
X15501924Y4584801D01*
X15505582Y4582160D01*
X15508884Y4580178D01*
X15511932Y4578807D01*
X15514675Y4578096D01*
X15517164Y4578096D01*
X15519400Y4578705D01*
X15521432Y4580026D01*
X15523159Y4582007D01*
X15524734Y4584700D01*
X15526054Y4588052D01*
X15527172Y4592116D01*
X15528899Y4602378D01*
X15529915Y4615434D01*
X15530423Y4631385D01*
X15530423Y4653026D01*
X15529966Y4672939D01*
X15529560Y4680610D01*
X15528899Y4686858D01*
X15528086Y4691888D01*
X15526969Y4695748D01*
X15525597Y4698695D01*
X15523972Y4700727D01*
X15521940Y4701997D01*
X15519603Y4702708D01*
X15516910Y4702860D01*
X15513100Y4702556D01*
X15510154Y4701438D01*
X15507969Y4699406D01*
X15506446Y4696104D01*
X15505582Y4691481D01*
X15505328Y4685233D01*
X15505531Y4677257D01*
X15506801Y4659325D01*
X15507004Y4652467D01*
X15506903Y4646676D01*
X15506446Y4641951D01*
X15505633Y4638243D01*
X15504413Y4635601D01*
X15502839Y4634026D01*
X15500756Y4633518D01*
X15498267Y4634026D01*
X15495320Y4635601D01*
X15491815Y4638243D01*
X15487853Y4641951D01*
X15483332Y4646676D01*
X15472663Y4659325D01*
X15461284Y4673803D01*
X15451886Y4684979D01*
X15443657Y4693564D01*
X15439999Y4696917D01*
X15436596Y4699558D01*
X15433446Y4701590D01*
X15430550Y4702911D01*
X15427909Y4703572D01*
G37*
G36*
X15041575Y4702860D02*
G01*
X15030500Y4702708D01*
X15020290Y4702200D01*
X15011196Y4701387D01*
X15003373Y4700320D01*
X14996972Y4699050D01*
X14992146Y4697526D01*
X14989149Y4695799D01*
X14988082Y4693970D01*
X14988844Y4692192D01*
X14991080Y4690516D01*
X14994636Y4688992D01*
X14999309Y4687671D01*
X15004948Y4686604D01*
X15011450Y4685741D01*
X15018613Y4685233D01*
X15038171Y4684979D01*
X15047264Y4684522D01*
X15054021Y4683506D01*
X15058745Y4681728D01*
X15061793Y4678984D01*
X15063520Y4675022D01*
X15064282Y4669688D01*
X15064486Y4662779D01*
X15064282Y4656226D01*
X15063571Y4651044D01*
X15062200Y4647133D01*
X15059913Y4644288D01*
X15056510Y4642408D01*
X15051786Y4641240D01*
X15045639Y4640630D01*
X15037765Y4640478D01*
X15027351Y4639767D01*
X15018867Y4637887D01*
X15013127Y4635042D01*
X15010993Y4631588D01*
X15013127Y4628134D01*
X15018867Y4625289D01*
X15027351Y4623358D01*
X15049804Y4621885D01*
X15058136Y4619498D01*
X15062911Y4615332D01*
X15064486Y4609287D01*
X15064028Y4605832D01*
X15062555Y4602937D01*
X15060015Y4600600D01*
X15056205Y4598822D01*
X15051024Y4597501D01*
X15044419Y4596587D01*
X15036190Y4596079D01*
X15018613Y4595723D01*
X15011450Y4595215D01*
X15004948Y4594402D01*
X14999309Y4593285D01*
X14994636Y4591964D01*
X14991080Y4590491D01*
X14988844Y4588814D01*
X14988082Y4586986D01*
X14989149Y4585157D01*
X14992146Y4583480D01*
X14996972Y4581956D01*
X15003373Y4580636D01*
X15011196Y4579569D01*
X15020290Y4578756D01*
X15030500Y4578248D01*
X15095016Y4578096D01*
X15095016Y4702860D01*
G37*
G36*
X15236342Y4702860D02*
G01*
X15189606Y4702606D01*
X15181681Y4702251D01*
X15174315Y4701641D01*
X15167559Y4700778D01*
X15161310Y4699660D01*
X15155621Y4698288D01*
X15150439Y4696561D01*
X15145766Y4694529D01*
X15141600Y4692192D01*
X15137841Y4689500D01*
X15134539Y4686452D01*
X15131643Y4683048D01*
X15129205Y4679238D01*
X15127122Y4675022D01*
X15125395Y4670399D01*
X15124074Y4665319D01*
X15123007Y4659833D01*
X15122296Y4653889D01*
X15121890Y4647438D01*
X15121839Y4636973D01*
X15138552Y4636973D01*
X15138755Y4642205D01*
X15139568Y4647336D01*
X15140889Y4652365D01*
X15142718Y4657242D01*
X15145004Y4661865D01*
X15147798Y4666183D01*
X15151049Y4670196D01*
X15154706Y4673854D01*
X15158770Y4677054D01*
X15163241Y4679797D01*
X15168016Y4682032D01*
X15173198Y4683709D01*
X15178633Y4684725D01*
X15184424Y4685080D01*
X15194991Y4684826D01*
X15198953Y4684369D01*
X15202103Y4683404D01*
X15204592Y4681829D01*
X15206472Y4679442D01*
X15207792Y4676190D01*
X15208656Y4671822D01*
X15209215Y4666234D01*
X15209621Y4650689D01*
X15209621Y4640478D01*
X15209367Y4633671D01*
X15208656Y4627321D01*
X15207538Y4621428D01*
X15206014Y4615992D01*
X15204084Y4611065D01*
X15201849Y4606594D01*
X15199258Y4602683D01*
X15196413Y4599330D01*
X15193263Y4596485D01*
X15189911Y4594250D01*
X15186355Y4592574D01*
X15182646Y4591507D01*
X15178786Y4591050D01*
X15174772Y4591253D01*
X15170708Y4592066D01*
X15166594Y4593590D01*
X15162428Y4595774D01*
X15158262Y4598670D01*
X15154097Y4602276D01*
X15150033Y4606594D01*
X15146477Y4611319D01*
X15143632Y4616196D01*
X15141397Y4621276D01*
X15139822Y4626457D01*
X15138907Y4631690D01*
X15138552Y4636973D01*
X15121839Y4636973D01*
X15122296Y4627118D01*
X15123007Y4621174D01*
X15124074Y4615637D01*
X15125395Y4610608D01*
X15127122Y4605985D01*
X15129205Y4601768D01*
X15131643Y4597958D01*
X15134539Y4594504D01*
X15137841Y4591456D01*
X15141600Y4588764D01*
X15145766Y4586427D01*
X15150439Y4584395D01*
X15155621Y4582718D01*
X15161310Y4581296D01*
X15167559Y4580178D01*
X15174315Y4579315D01*
X15181681Y4578705D01*
X15198140Y4578197D01*
X15236342Y4578096D01*
G37*
G36*
X15321788Y4702860D02*
G01*
X15316504Y4702505D01*
X15311170Y4701438D01*
X15305938Y4699711D01*
X15300756Y4697323D01*
X15295676Y4694428D01*
X15290850Y4691024D01*
X15286228Y4687163D01*
X15281859Y4682896D01*
X15277846Y4678324D01*
X15274239Y4673396D01*
X15271038Y4668215D01*
X15268295Y4662881D01*
X15266111Y4657344D01*
X15264485Y4651756D01*
X15263418Y4646117D01*
X15263176Y4638598D01*
X15286939Y4638598D01*
X15287040Y4643628D01*
X15287650Y4648606D01*
X15288717Y4653432D01*
X15290292Y4658106D01*
X15292273Y4662576D01*
X15294660Y4666742D01*
X15297505Y4670653D01*
X15300706Y4674158D01*
X15304262Y4677308D01*
X15308224Y4679950D01*
X15312440Y4682134D01*
X15317012Y4683709D01*
X15321889Y4684725D01*
X15327020Y4685080D01*
X15332456Y4684725D01*
X15337485Y4683709D01*
X15342057Y4682083D01*
X15346222Y4679797D01*
X15349931Y4676952D01*
X15353182Y4673447D01*
X15355976Y4669332D01*
X15358262Y4664659D01*
X15360040Y4659426D01*
X15361361Y4653635D01*
X15362123Y4647336D01*
X15362377Y4640478D01*
X15362123Y4634331D01*
X15361310Y4628540D01*
X15359989Y4623155D01*
X15358160Y4618177D01*
X15355976Y4613656D01*
X15353334Y4609592D01*
X15350388Y4605934D01*
X15347137Y4602835D01*
X15343632Y4600194D01*
X15339872Y4598111D01*
X15335910Y4596536D01*
X15331795Y4595520D01*
X15327579Y4595114D01*
X15323261Y4595317D01*
X15318943Y4596079D01*
X15314574Y4597501D01*
X15310307Y4599584D01*
X15306090Y4602327D01*
X15301976Y4605782D01*
X15298013Y4609947D01*
X15294711Y4614316D01*
X15292019Y4618888D01*
X15289885Y4623663D01*
X15288361Y4628591D01*
X15287396Y4633569D01*
X15286939Y4638598D01*
X15263176Y4638598D01*
X15263317Y4634382D01*
X15264079Y4628591D01*
X15265247Y4623054D01*
X15266873Y4617821D01*
X15268905Y4612894D01*
X15271292Y4608271D01*
X15274086Y4604004D01*
X15277236Y4600041D01*
X15280741Y4596434D01*
X15284551Y4593132D01*
X15288666Y4590288D01*
X15293035Y4587748D01*
X15297657Y4585614D01*
X15302484Y4583887D01*
X15307563Y4582566D01*
X15312796Y4581702D01*
X15318232Y4581194D01*
X15323819Y4581194D01*
X15329560Y4581601D01*
X15335351Y4582464D01*
X15341295Y4583836D01*
X15347289Y4585665D01*
X15353334Y4588002D01*
X15359380Y4590846D01*
X15363850Y4593336D01*
X15367965Y4596079D01*
X15371724Y4599025D01*
X15375077Y4602175D01*
X15378023Y4605528D01*
X15380665Y4609033D01*
X15382951Y4612690D01*
X15384881Y4616500D01*
X15386456Y4620412D01*
X15387726Y4624374D01*
X15388640Y4628438D01*
X15389250Y4632553D01*
X15389504Y4636719D01*
X15389148Y4645152D01*
X15387574Y4653483D01*
X15384830Y4661611D01*
X15383052Y4665573D01*
X15378684Y4673142D01*
X15376093Y4676749D01*
X15373248Y4680204D01*
X15370200Y4683455D01*
X15363342Y4689398D01*
X15359532Y4692040D01*
X15355519Y4694428D01*
X15351302Y4696561D01*
X15346883Y4698441D01*
X15342260Y4699965D01*
X15337434Y4701235D01*
X15332405Y4702149D01*
X15327172Y4702708D01*
G37*
D35*
X265684Y6146800D02*
G01*
X343662Y6146800D01*
X359155Y6151879D01*
X369570Y6162294D01*
X374650Y6178042D01*
X374650Y6188455D01*
X369570Y6203950D01*
X359155Y6214363D01*
X343662Y6219444D01*
X265684Y6219444D01*
X281178Y6316218D02*
G01*
X270763Y6310884D01*
X265684Y6295389D01*
X265684Y6284976D01*
X270763Y6269481D01*
X286512Y6259068D01*
X312420Y6253734D01*
X338328Y6253734D01*
X359155Y6259068D01*
X369570Y6269481D01*
X374650Y6284976D01*
X374650Y6290310D01*
X369570Y6305804D01*
X359155Y6316218D01*
X343662Y6321297D01*
X338328Y6321297D01*
X322834Y6316218D01*
X312420Y6305804D01*
X307339Y6290310D01*
X307339Y6284976D01*
X312420Y6269481D01*
X322834Y6259068D01*
X338328Y6253734D01*
X75184Y3975074D02*
G01*
X184150Y3975074D01*
X75184Y3975074D02*
G01*
X75184Y4011396D01*
X80263Y4027144D01*
X90678Y4037558D01*
X101092Y4042638D01*
X116839Y4047718D01*
X142747Y4047718D01*
X158242Y4042638D01*
X168655Y4037558D01*
X179070Y4027144D01*
X184150Y4011396D01*
X184150Y3975074D01*
X75184Y4082008D02*
G01*
X184150Y4082008D01*
X75184Y4154906D02*
G01*
X184150Y4154906D01*
X127000Y4082008D02*
G01*
X127000Y4154906D01*
X75184Y4225518D02*
G01*
X184150Y4225518D01*
X75184Y4189196D02*
G01*
X75184Y4261840D01*
X96012Y4296130D02*
G01*
X90678Y4306544D01*
X75184Y4322038D01*
X184150Y4322038D01*
X96012Y4356328D02*
G01*
X90678Y4366742D01*
X75184Y4382490D01*
X184150Y4382490D01*
X2755900Y926084D02*
G01*
X2755900Y1004062D01*
X2750820Y1019555D01*
X2740406Y1029970D01*
X2724658Y1035050D01*
X2714243Y1035050D01*
X2698750Y1029970D01*
X2688336Y1019555D01*
X2683256Y1004062D01*
X2683256Y926084D01*
X2638552Y926084D02*
G01*
X2581402Y926084D01*
X2612390Y967739D01*
X2596895Y967739D01*
X2586481Y972820D01*
X2581402Y977900D01*
X2576068Y993647D01*
X2576068Y1004062D01*
X2581402Y1019555D01*
X2591815Y1029970D01*
X2607309Y1035050D01*
X2622804Y1035050D01*
X2638552Y1029970D01*
X2643631Y1024889D01*
X2648965Y1014476D01*
D32*
X1714500Y1900428D02*
G01*
X1714500Y1997455D01*
X1714500Y1900428D02*
G01*
X1672844Y1900428D01*
X1659128Y1905000D01*
X1654555Y1909571D01*
X1649729Y1918970D01*
X1649729Y1928113D01*
X1654555Y1937257D01*
X1659128Y1941829D01*
X1672844Y1946655D01*
X1714500Y1946655D01*
X1682242Y1946655D02*
G01*
X1649729Y1997455D01*
X1619250Y1900428D02*
G01*
X1619250Y1997455D01*
X1619250Y1900428D02*
G01*
X1559305Y1900428D01*
X1619250Y1946655D02*
G01*
X1582420Y1946655D01*
X1619250Y1997455D02*
G01*
X1559305Y1997455D01*
X1464310Y1914144D02*
G01*
X1473454Y1905000D01*
X1487170Y1900428D01*
X1505712Y1900428D01*
X1519681Y1905000D01*
X1528826Y1914144D01*
X1528826Y1923542D01*
X1524254Y1932686D01*
X1519681Y1937257D01*
X1510284Y1941829D01*
X1482597Y1951228D01*
X1473454Y1955800D01*
X1468881Y1960371D01*
X1464310Y1969770D01*
X1464310Y1983486D01*
X1473454Y1992629D01*
X1487170Y1997455D01*
X1505712Y1997455D01*
X1519681Y1992629D01*
X1528826Y1983486D01*
X1433829Y1900428D02*
G01*
X1433829Y1997455D01*
X1433829Y1900428D02*
G01*
X1373631Y1900428D01*
X1433829Y1946655D02*
G01*
X1396745Y1946655D01*
X1433829Y1997455D02*
G01*
X1373631Y1997455D01*
X1310894Y1900428D02*
G01*
X1310894Y1997455D01*
X1343152Y1900428D02*
G01*
X1278636Y1900428D01*
X1664970Y4210812D02*
G01*
X1701800Y4307839D01*
X1664970Y4210812D02*
G01*
X1627886Y4307839D01*
X1687829Y4275328D02*
G01*
X1641855Y4275328D01*
X1532889Y4210812D02*
G01*
X1578863Y4307839D01*
X1597405Y4210812D02*
G01*
X1532889Y4210812D01*
X1664970Y3931412D02*
G01*
X1701800Y4028439D01*
X1664970Y3931412D02*
G01*
X1627886Y4028439D01*
X1687829Y3995928D02*
G01*
X1641855Y3995928D01*
X1542034Y3945128D02*
G01*
X1546605Y3935984D01*
X1560576Y3931412D01*
X1569720Y3931412D01*
X1583689Y3935984D01*
X1592834Y3949954D01*
X1597405Y3972813D01*
X1597405Y3995928D01*
X1592834Y4014470D01*
X1583689Y4023613D01*
X1569720Y4028439D01*
X1565147Y4028439D01*
X1551178Y4023613D01*
X1542034Y4014470D01*
X1537462Y4000754D01*
X1537462Y3995928D01*
X1542034Y3982212D01*
X1551178Y3972813D01*
X1565147Y3968242D01*
X1569720Y3968242D01*
X1583689Y3972813D01*
X1592834Y3982212D01*
X1597405Y3995928D01*
X1664970Y3702812D02*
G01*
X1701800Y3799839D01*
X1664970Y3702812D02*
G01*
X1627886Y3799839D01*
X1687829Y3767328D02*
G01*
X1641855Y3767328D01*
X1542034Y3702812D02*
G01*
X1588262Y3702812D01*
X1592834Y3744213D01*
X1588262Y3739642D01*
X1574292Y3735070D01*
X1560576Y3735070D01*
X1546605Y3739642D01*
X1537462Y3749039D01*
X1532889Y3762755D01*
X1532889Y3772154D01*
X1537462Y3785870D01*
X1546605Y3795013D01*
X1560576Y3799839D01*
X1574292Y3799839D01*
X1588262Y3795013D01*
X1592834Y3790442D01*
X1597405Y3781297D01*
X1664970Y3448812D02*
G01*
X1701800Y3545839D01*
X1664970Y3448812D02*
G01*
X1627886Y3545839D01*
X1687829Y3513328D02*
G01*
X1641855Y3513328D01*
X1551178Y3448812D02*
G01*
X1597405Y3513328D01*
X1528063Y3513328D01*
X1551178Y3448812D02*
G01*
X1551178Y3545839D01*
X1664970Y3194812D02*
G01*
X1701800Y3291839D01*
X1664970Y3194812D02*
G01*
X1627886Y3291839D01*
X1687829Y3259328D02*
G01*
X1641855Y3259328D01*
X1588262Y3194812D02*
G01*
X1537462Y3194812D01*
X1565147Y3231642D01*
X1551178Y3231642D01*
X1542034Y3236213D01*
X1537462Y3241039D01*
X1532889Y3254755D01*
X1532889Y3264154D01*
X1537462Y3277870D01*
X1546605Y3287013D01*
X1560576Y3291839D01*
X1574292Y3291839D01*
X1588262Y3287013D01*
X1592834Y3282442D01*
X1597405Y3273297D01*
X1664970Y2915412D02*
G01*
X1701800Y3012439D01*
X1664970Y2915412D02*
G01*
X1627886Y3012439D01*
X1687829Y2979928D02*
G01*
X1641855Y2979928D01*
X1592834Y2938526D02*
G01*
X1592834Y2933954D01*
X1588262Y2924555D01*
X1583689Y2919984D01*
X1574292Y2915412D01*
X1555750Y2915412D01*
X1546605Y2919984D01*
X1542034Y2924555D01*
X1537462Y2933954D01*
X1537462Y2943097D01*
X1542034Y2952242D01*
X1551178Y2966212D01*
X1597405Y3012439D01*
X1532889Y3012439D01*
X1639570Y2687828D02*
G01*
X1676400Y2784855D01*
X1639570Y2687828D02*
G01*
X1602486Y2784855D01*
X1662429Y2752344D02*
G01*
X1616455Y2752344D01*
X1572005Y2706370D02*
G01*
X1562862Y2701544D01*
X1548892Y2687828D01*
X1548892Y2784855D01*
X1664970Y2407412D02*
G01*
X1701800Y2504439D01*
X1664970Y2407412D02*
G01*
X1627886Y2504439D01*
X1687829Y2471928D02*
G01*
X1641855Y2471928D01*
X1569720Y2407412D02*
G01*
X1583689Y2411984D01*
X1592834Y2425954D01*
X1597405Y2448813D01*
X1597405Y2462784D01*
X1592834Y2485897D01*
X1583689Y2499613D01*
X1569720Y2504439D01*
X1560576Y2504439D01*
X1546605Y2499613D01*
X1537462Y2485897D01*
X1532889Y2462784D01*
X1532889Y2448813D01*
X1537462Y2425954D01*
X1546605Y2411984D01*
X1560576Y2407412D01*
X1569720Y2407412D01*
X1664970Y4453128D02*
G01*
X1701800Y4550155D01*
X1664970Y4453128D02*
G01*
X1627886Y4550155D01*
X1687829Y4517644D02*
G01*
X1641855Y4517644D01*
X1597405Y4453128D02*
G01*
X1597405Y4550155D01*
X1597405Y4453128D02*
G01*
X1555750Y4453128D01*
X1542034Y4457700D01*
X1537462Y4462271D01*
X1532889Y4471670D01*
X1532889Y4480813D01*
X1537462Y4489957D01*
X1542034Y4494529D01*
X1555750Y4499355D01*
X1597405Y4499355D01*
X1565147Y4499355D02*
G01*
X1532889Y4550155D01*
X1502410Y4453128D02*
G01*
X1502410Y4550155D01*
X1502410Y4453128D02*
G01*
X1442212Y4453128D01*
X1502410Y4499355D02*
G01*
X1465326Y4499355D01*
X1502410Y4550155D02*
G01*
X1442212Y4550155D01*
X1411731Y4453128D02*
G01*
X1411731Y4550155D01*
X1411731Y4453128D02*
G01*
X1351787Y4453128D01*
X1411731Y4499355D02*
G01*
X1374902Y4499355D01*
X1692655Y4732528D02*
G01*
X1641855Y4732528D01*
X1669542Y4769357D01*
X1655571Y4769357D01*
X1646428Y4773929D01*
X1641855Y4778755D01*
X1637029Y4792471D01*
X1637029Y4801870D01*
X1641855Y4815586D01*
X1651000Y4824729D01*
X1664970Y4829555D01*
X1678686Y4829555D01*
X1692655Y4824729D01*
X1697228Y4820157D01*
X1701800Y4811013D01*
X1606550Y4732528D02*
G01*
X1569720Y4829555D01*
X1532889Y4732528D02*
G01*
X1569720Y4829555D01*
X1493012Y4732528D02*
G01*
X1442212Y4732528D01*
X1469897Y4769357D01*
X1456181Y4769357D01*
X1446784Y4773929D01*
X1442212Y4778755D01*
X1437639Y4792471D01*
X1437639Y4801870D01*
X1442212Y4815586D01*
X1451610Y4824729D01*
X1465326Y4829555D01*
X1479295Y4829555D01*
X1493012Y4824729D01*
X1497584Y4820157D01*
X1502410Y4811013D01*
X4318000Y4694428D02*
G01*
X4318000Y4791455D01*
X4318000Y4694428D02*
G01*
X4285741Y4694428D01*
X4271772Y4699000D01*
X4262627Y4708144D01*
X4258056Y4717542D01*
X4253229Y4731257D01*
X4253229Y4754371D01*
X4258056Y4768342D01*
X4262627Y4777486D01*
X4271772Y4786629D01*
X4285741Y4791455D01*
X4318000Y4791455D01*
X4222750Y4712970D02*
G01*
X4213606Y4708144D01*
X4199890Y4694428D01*
X4199890Y4791455D01*
X4169409Y4712970D02*
G01*
X4160011Y4708144D01*
X4146295Y4694428D01*
X4146295Y4791455D01*
X4032504Y4675886D02*
G01*
X4115815Y4823713D01*
X4002024Y4694428D02*
G01*
X4002024Y4791455D01*
X4002024Y4694428D02*
G01*
X3965193Y4791455D01*
X3928109Y4694428D02*
G01*
X3965193Y4791455D01*
X3928109Y4694428D02*
G01*
X3928109Y4791455D01*
X3869943Y4694428D02*
G01*
X3879341Y4699000D01*
X3888486Y4708144D01*
X3893058Y4717542D01*
X3897629Y4731257D01*
X3897629Y4754371D01*
X3893058Y4768342D01*
X3888486Y4777486D01*
X3879341Y4786629D01*
X3869943Y4791455D01*
X3851656Y4791455D01*
X3842258Y4786629D01*
X3833113Y4777486D01*
X3828541Y4768342D01*
X3823970Y4754371D01*
X3823970Y4731257D01*
X3828541Y4717542D01*
X3833113Y4708144D01*
X3842258Y4699000D01*
X3851656Y4694428D01*
X3869943Y4694428D01*
X3728720Y4708144D02*
G01*
X3737863Y4699000D01*
X3751834Y4694428D01*
X3770375Y4694428D01*
X3784091Y4699000D01*
X3793490Y4708144D01*
X3793490Y4717542D01*
X3788663Y4726686D01*
X3784091Y4731257D01*
X3774947Y4735829D01*
X3747261Y4745228D01*
X3737863Y4749800D01*
X3733291Y4754371D01*
X3728720Y4763770D01*
X3728720Y4777486D01*
X3737863Y4786629D01*
X3751834Y4791455D01*
X3770375Y4791455D01*
X3784091Y4786629D01*
X3793490Y4777486D01*
X3698240Y4694428D02*
G01*
X3698240Y4791455D01*
X3966209Y4453128D02*
G01*
X3966209Y4550155D01*
X3966209Y4453128D02*
G01*
X3933952Y4453128D01*
X3919981Y4457700D01*
X3910838Y4466844D01*
X3906265Y4476242D01*
X3901440Y4489957D01*
X3901440Y4513071D01*
X3906265Y4527042D01*
X3910838Y4536186D01*
X3919981Y4545329D01*
X3933952Y4550155D01*
X3966209Y4550155D01*
X3870959Y4471670D02*
G01*
X3861815Y4466844D01*
X3848100Y4453128D01*
X3848100Y4550155D01*
X3789679Y4453128D02*
G01*
X3803650Y4457700D01*
X3812793Y4471670D01*
X3817620Y4494529D01*
X3817620Y4508500D01*
X3812793Y4531613D01*
X3803650Y4545329D01*
X3789679Y4550155D01*
X3780536Y4550155D01*
X3766820Y4545329D01*
X3757422Y4531613D01*
X3752850Y4508500D01*
X3752850Y4494529D01*
X3757422Y4471670D01*
X3766820Y4457700D01*
X3780536Y4453128D01*
X3789679Y4453128D01*
X3908043Y4173728D02*
G01*
X3908043Y4270755D01*
X3908043Y4173728D02*
G01*
X3875786Y4173728D01*
X3861815Y4178300D01*
X3852672Y4187444D01*
X3848100Y4196842D01*
X3843274Y4210557D01*
X3843274Y4233671D01*
X3848100Y4247642D01*
X3852672Y4256786D01*
X3861815Y4265929D01*
X3875786Y4270755D01*
X3908043Y4270755D01*
X3752850Y4205986D02*
G01*
X3757422Y4219955D01*
X3766820Y4229100D01*
X3780536Y4233671D01*
X3785108Y4233671D01*
X3799077Y4229100D01*
X3808222Y4219955D01*
X3812793Y4205986D01*
X3812793Y4201413D01*
X3808222Y4187444D01*
X3799077Y4178300D01*
X3785108Y4173728D01*
X3780536Y4173728D01*
X3766820Y4178300D01*
X3757422Y4187444D01*
X3752850Y4205986D01*
X3752850Y4229100D01*
X3757422Y4252213D01*
X3766820Y4265929D01*
X3780536Y4270755D01*
X3789934Y4270755D01*
X3803650Y4265929D01*
X3808222Y4256786D01*
X3898900Y3919728D02*
G01*
X3898900Y4016755D01*
X3898900Y3919728D02*
G01*
X3866641Y3919728D01*
X3852672Y3924300D01*
X3843527Y3933444D01*
X3838956Y3942842D01*
X3834129Y3956557D01*
X3834129Y3979671D01*
X3838956Y3993642D01*
X3843527Y4002786D01*
X3852672Y4011929D01*
X3866641Y4016755D01*
X3898900Y4016755D01*
X3780790Y3919728D02*
G01*
X3794506Y3924300D01*
X3799077Y3933444D01*
X3799077Y3942842D01*
X3794506Y3951986D01*
X3785361Y3956557D01*
X3766820Y3961129D01*
X3752850Y3965955D01*
X3743706Y3975100D01*
X3739134Y3984244D01*
X3739134Y3998213D01*
X3743706Y4007357D01*
X3748277Y4011929D01*
X3762247Y4016755D01*
X3780790Y4016755D01*
X3794506Y4011929D01*
X3799077Y4007357D01*
X3803650Y3998213D01*
X3803650Y3984244D01*
X3799077Y3975100D01*
X3789934Y3965955D01*
X3775963Y3961129D01*
X3757675Y3956557D01*
X3748277Y3951986D01*
X3743706Y3942842D01*
X3743706Y3933444D01*
X3748277Y3924300D01*
X3762247Y3919728D01*
X3780790Y3919728D01*
X3886200Y3665728D02*
G01*
X3886200Y3762755D01*
X3886200Y3665728D02*
G01*
X3853941Y3665728D01*
X3839972Y3670300D01*
X3830827Y3679444D01*
X3826256Y3688842D01*
X3821429Y3702557D01*
X3821429Y3725671D01*
X3826256Y3739642D01*
X3830827Y3748786D01*
X3839972Y3757929D01*
X3853941Y3762755D01*
X3886200Y3762755D01*
X3726434Y3665728D02*
G01*
X3772661Y3762755D01*
X3790950Y3665728D02*
G01*
X3726434Y3665728D01*
X3908043Y3411728D02*
G01*
X3908043Y3508755D01*
X3908043Y3411728D02*
G01*
X3875786Y3411728D01*
X3861815Y3416300D01*
X3852672Y3425444D01*
X3848100Y3434842D01*
X3843274Y3448557D01*
X3843274Y3471671D01*
X3848100Y3485642D01*
X3852672Y3494786D01*
X3861815Y3503929D01*
X3875786Y3508755D01*
X3908043Y3508755D01*
X3757422Y3425444D02*
G01*
X3761993Y3416300D01*
X3775963Y3411728D01*
X3785108Y3411728D01*
X3799077Y3416300D01*
X3808222Y3430270D01*
X3812793Y3453129D01*
X3812793Y3476244D01*
X3808222Y3494786D01*
X3799077Y3503929D01*
X3785108Y3508755D01*
X3780536Y3508755D01*
X3766820Y3503929D01*
X3757422Y3494786D01*
X3752850Y3481070D01*
X3752850Y3476244D01*
X3757422Y3462528D01*
X3766820Y3453129D01*
X3780536Y3448557D01*
X3785108Y3448557D01*
X3799077Y3453129D01*
X3808222Y3462528D01*
X3812793Y3476244D01*
X3912615Y3157728D02*
G01*
X3912615Y3254755D01*
X3912615Y3157728D02*
G01*
X3880358Y3157728D01*
X3866388Y3162300D01*
X3857243Y3171444D01*
X3852672Y3180842D01*
X3847845Y3194557D01*
X3847845Y3217671D01*
X3852672Y3231642D01*
X3857243Y3240786D01*
X3866388Y3249929D01*
X3880358Y3254755D01*
X3912615Y3254755D01*
X3761993Y3157728D02*
G01*
X3808222Y3157728D01*
X3812793Y3199129D01*
X3808222Y3194557D01*
X3794506Y3189986D01*
X3780536Y3189986D01*
X3766565Y3194557D01*
X3757422Y3203955D01*
X3752850Y3217671D01*
X3752850Y3227070D01*
X3757422Y3240786D01*
X3766565Y3249929D01*
X3780536Y3254755D01*
X3794506Y3254755D01*
X3808222Y3249929D01*
X3812793Y3245357D01*
X3817365Y3236213D01*
X3917188Y2929128D02*
G01*
X3917188Y3026155D01*
X3917188Y2929128D02*
G01*
X3884929Y2929128D01*
X3870959Y2933700D01*
X3861815Y2942844D01*
X3857243Y2952242D01*
X3852418Y2965957D01*
X3852418Y2989071D01*
X3857243Y3003042D01*
X3861815Y3012186D01*
X3870959Y3021329D01*
X3884929Y3026155D01*
X3917188Y3026155D01*
X3775963Y2929128D02*
G01*
X3821938Y2993644D01*
X3752850Y2993644D01*
X3775963Y2929128D02*
G01*
X3775963Y3026155D01*
X3912615Y2675128D02*
G01*
X3912615Y2772155D01*
X3912615Y2675128D02*
G01*
X3880358Y2675128D01*
X3866388Y2679700D01*
X3857243Y2688844D01*
X3852672Y2698242D01*
X3847845Y2711957D01*
X3847845Y2735071D01*
X3852672Y2749042D01*
X3857243Y2758186D01*
X3866388Y2767329D01*
X3880358Y2772155D01*
X3912615Y2772155D01*
X3808222Y2675128D02*
G01*
X3757422Y2675128D01*
X3785108Y2711957D01*
X3771391Y2711957D01*
X3761993Y2716529D01*
X3757422Y2721355D01*
X3752850Y2735071D01*
X3752850Y2744470D01*
X3757422Y2758186D01*
X3766565Y2767329D01*
X3780536Y2772155D01*
X3794506Y2772155D01*
X3808222Y2767329D01*
X3812793Y2762757D01*
X3817365Y2753613D01*
X3912615Y2421128D02*
G01*
X3912615Y2518155D01*
X3912615Y2421128D02*
G01*
X3880358Y2421128D01*
X3866388Y2425700D01*
X3857243Y2434844D01*
X3852672Y2444242D01*
X3847845Y2457957D01*
X3847845Y2481071D01*
X3852672Y2495042D01*
X3857243Y2504186D01*
X3866388Y2513329D01*
X3880358Y2518155D01*
X3912615Y2518155D01*
X3812793Y2444242D02*
G01*
X3812793Y2439670D01*
X3808222Y2430271D01*
X3803650Y2425700D01*
X3794506Y2421128D01*
X3775963Y2421128D01*
X3766565Y2425700D01*
X3761993Y2430271D01*
X3757422Y2439670D01*
X3757422Y2448813D01*
X3761993Y2457957D01*
X3771391Y2471928D01*
X3817365Y2518155D01*
X3752850Y2518155D01*
X4165600Y1913128D02*
G01*
X4165600Y2010155D01*
X4165600Y1913128D02*
G01*
X4123943Y1913128D01*
X4110227Y1917700D01*
X4105656Y1922271D01*
X4100829Y1931670D01*
X4100829Y1940813D01*
X4105656Y1949957D01*
X4110227Y1954529D01*
X4123943Y1959355D01*
X4165600Y1959355D01*
X4133341Y1959355D02*
G01*
X4100829Y2010155D01*
X4070350Y1913128D02*
G01*
X4070350Y2010155D01*
X4070350Y1913128D02*
G01*
X4010406Y1913128D01*
X4070350Y1959355D02*
G01*
X4033520Y1959355D01*
X4070350Y2010155D02*
G01*
X4010406Y2010155D01*
X3915409Y1926844D02*
G01*
X3924554Y1917700D01*
X3938270Y1913128D01*
X3956811Y1913128D01*
X3970781Y1917700D01*
X3979925Y1926844D01*
X3979925Y1936242D01*
X3975354Y1945386D01*
X3970781Y1949957D01*
X3961384Y1954529D01*
X3933697Y1963928D01*
X3924554Y1968500D01*
X3919981Y1973071D01*
X3915409Y1982470D01*
X3915409Y1996186D01*
X3924554Y2005329D01*
X3938270Y2010155D01*
X3956811Y2010155D01*
X3970781Y2005329D01*
X3979925Y1996186D01*
X3884929Y1913128D02*
G01*
X3884929Y2010155D01*
X3884929Y1913128D02*
G01*
X3824731Y1913128D01*
X3884929Y1959355D02*
G01*
X3847845Y1959355D01*
X3884929Y2010155D02*
G01*
X3824731Y2010155D01*
X3761993Y1913128D02*
G01*
X3761993Y2010155D01*
X3794252Y1913128D02*
G01*
X3729736Y1913128D01*
X4152900Y1684528D02*
G01*
X4152900Y1781555D01*
X4152900Y1684528D02*
G01*
X4120641Y1684528D01*
X4106672Y1689100D01*
X4097527Y1698244D01*
X4092956Y1707642D01*
X4088129Y1721357D01*
X4088129Y1744471D01*
X4092956Y1758442D01*
X4097527Y1767586D01*
X4106672Y1776729D01*
X4120641Y1781555D01*
X4152900Y1781555D01*
X4029963Y1684528D02*
G01*
X4043934Y1689100D01*
X4053077Y1703070D01*
X4057650Y1725929D01*
X4057650Y1739900D01*
X4053077Y1763013D01*
X4043934Y1776729D01*
X4029963Y1781555D01*
X4020820Y1781555D01*
X4006850Y1776729D01*
X3997706Y1763013D01*
X3993134Y1739900D01*
X3993134Y1725929D01*
X3997706Y1703070D01*
X4006850Y1689100D01*
X4020820Y1684528D01*
X4029963Y1684528D01*
X3879595Y1665986D02*
G01*
X3962654Y1813813D01*
X3849115Y1684528D02*
G01*
X3849115Y1781555D01*
X3849115Y1684528D02*
G01*
X3807459Y1684528D01*
X3793490Y1689100D01*
X3788918Y1693671D01*
X3784345Y1703070D01*
X3784345Y1712213D01*
X3788918Y1721357D01*
X3793490Y1725929D01*
X3807459Y1730755D01*
X3849115Y1730755D01*
X3816604Y1730755D02*
G01*
X3784345Y1781555D01*
X3753865Y1684528D02*
G01*
X3689350Y1781555D01*
X3689350Y1684528D02*
G01*
X3753865Y1781555D01*
X3943095Y2190242D02*
G01*
X3947668Y2180844D01*
X3957065Y2171700D01*
X3966209Y2167128D01*
X3984752Y2167128D01*
X3993895Y2171700D01*
X4003293Y2180844D01*
X4007865Y2190242D01*
X4012438Y2203957D01*
X4012438Y2227071D01*
X4007865Y2241042D01*
X4003293Y2250186D01*
X3993895Y2259329D01*
X3984752Y2264155D01*
X3966209Y2264155D01*
X3957065Y2259329D01*
X3947668Y2250186D01*
X3943095Y2241042D01*
X3943095Y2227071D01*
X3966209Y2227071D02*
G01*
X3943095Y2227071D01*
X3912615Y2167128D02*
G01*
X3912615Y2264155D01*
X3912615Y2167128D02*
G01*
X3848100Y2264155D01*
X3848100Y2167128D02*
G01*
X3848100Y2264155D01*
X3817620Y2167128D02*
G01*
X3817620Y2264155D01*
X3817620Y2167128D02*
G01*
X3785108Y2167128D01*
X3771391Y2171700D01*
X3762247Y2180844D01*
X3757422Y2190242D01*
X3752850Y2203957D01*
X3752850Y2227071D01*
X3757422Y2241042D01*
X3762247Y2250186D01*
X3771391Y2259329D01*
X3785108Y2264155D01*
X3817620Y2264155D01*
X1701800Y4986528D02*
G01*
X1701800Y5083555D01*
X1701800Y4986528D02*
G01*
X1669542Y4986528D01*
X1655571Y4991100D01*
X1646428Y5000244D01*
X1641855Y5009642D01*
X1637029Y5023357D01*
X1637029Y5046471D01*
X1641855Y5060442D01*
X1646428Y5069586D01*
X1655571Y5078729D01*
X1669542Y5083555D01*
X1701800Y5083555D01*
X1606550Y5005070D02*
G01*
X1597405Y5000244D01*
X1583689Y4986528D01*
X1583689Y5083555D01*
X1543812Y4986528D02*
G01*
X1493012Y4986528D01*
X1520697Y5023357D01*
X1506981Y5023357D01*
X1497584Y5027929D01*
X1493012Y5032755D01*
X1488439Y5046471D01*
X1488439Y5055870D01*
X1493012Y5069586D01*
X1502410Y5078729D01*
X1516126Y5083555D01*
X1530095Y5083555D01*
X1543812Y5078729D01*
X1548384Y5074157D01*
X1553210Y5065013D01*
X1374902Y4967986D02*
G01*
X1457960Y5115813D01*
X1279652Y5000244D02*
G01*
X1289050Y4991100D01*
X1302765Y4986528D01*
X1321307Y4986528D01*
X1335023Y4991100D01*
X1344421Y5000244D01*
X1344421Y5009642D01*
X1339850Y5018786D01*
X1335023Y5023357D01*
X1325879Y5027929D01*
X1298194Y5037328D01*
X1289050Y5041900D01*
X1284223Y5046471D01*
X1279652Y5055870D01*
X1279652Y5069586D01*
X1289050Y5078729D01*
X1302765Y5083555D01*
X1321307Y5083555D01*
X1335023Y5078729D01*
X1344421Y5069586D01*
X1179829Y5009642D02*
G01*
X1184655Y5000244D01*
X1193800Y4991100D01*
X1202944Y4986528D01*
X1221486Y4986528D01*
X1230629Y4991100D01*
X1240028Y5000244D01*
X1244600Y5009642D01*
X1249171Y5023357D01*
X1249171Y5046471D01*
X1244600Y5060442D01*
X1240028Y5069586D01*
X1230629Y5078729D01*
X1221486Y5083555D01*
X1202944Y5083555D01*
X1193800Y5078729D01*
X1184655Y5069586D01*
X1179829Y5060442D01*
X1149350Y4986528D02*
G01*
X1149350Y5083555D01*
X1084834Y4986528D02*
G01*
X1149350Y5051044D01*
X1126489Y5027929D02*
G01*
X1084834Y5083555D01*
X1701800Y1405128D02*
G01*
X1664970Y1502155D01*
X1627886Y1405128D02*
G01*
X1664970Y1502155D01*
X1597405Y1405128D02*
G01*
X1597405Y1502155D01*
X1566926Y1405128D02*
G01*
X1566926Y1502155D01*
X1566926Y1405128D02*
G01*
X1502410Y1502155D01*
X1502410Y1405128D02*
G01*
X1502410Y1502155D01*
X4414265Y4961128D02*
G01*
X4414265Y5058155D01*
X4414265Y4961128D02*
G01*
X4382008Y4961128D01*
X4368038Y4965700D01*
X4358893Y4974844D01*
X4354322Y4984242D01*
X4349495Y4997957D01*
X4349495Y5021071D01*
X4354322Y5035042D01*
X4358893Y5044186D01*
X4368038Y5053329D01*
X4382008Y5058155D01*
X4414265Y5058155D01*
X4319015Y4979670D02*
G01*
X4309872Y4974844D01*
X4296156Y4961128D01*
X4296156Y5058155D01*
X4260850Y4984242D02*
G01*
X4260850Y4979670D01*
X4256277Y4970271D01*
X4251706Y4965700D01*
X4242561Y4961128D01*
X4224020Y4961128D01*
X4214875Y4965700D01*
X4210050Y4970271D01*
X4205477Y4979670D01*
X4205477Y4988813D01*
X4210050Y4997957D01*
X4219447Y5011928D01*
X4265675Y5058155D01*
X4200906Y5058155D01*
X4087368Y4942586D02*
G01*
X4170425Y5090413D01*
X4056888Y4961128D02*
G01*
X4056888Y5058155D01*
X4056888Y4961128D02*
G01*
X4019804Y5058155D01*
X3982974Y4961128D02*
G01*
X4019804Y5058155D01*
X3982974Y4961128D02*
G01*
X3982974Y5058155D01*
X3952493Y4961128D02*
G01*
X3952493Y5058155D01*
X3857243Y4974844D02*
G01*
X3866641Y4965700D01*
X3880358Y4961128D01*
X3898900Y4961128D01*
X3912615Y4965700D01*
X3922013Y4974844D01*
X3922013Y4984242D01*
X3917441Y4993386D01*
X3912615Y4997957D01*
X3903472Y5002529D01*
X3875786Y5011928D01*
X3866641Y5016500D01*
X3861815Y5021071D01*
X3857243Y5030470D01*
X3857243Y5044186D01*
X3866641Y5053329D01*
X3880358Y5058155D01*
X3898900Y5058155D01*
X3912615Y5053329D01*
X3922013Y5044186D01*
X3799077Y4961128D02*
G01*
X3808475Y4965700D01*
X3817620Y4974844D01*
X3822191Y4984242D01*
X3826763Y4997957D01*
X3826763Y5021071D01*
X3822191Y5035042D01*
X3817620Y5044186D01*
X3808475Y5053329D01*
X3799077Y5058155D01*
X3780536Y5058155D01*
X3771391Y5053329D01*
X3762247Y5044186D01*
X3757675Y5035042D01*
X3752850Y5021071D01*
X3752850Y4997957D01*
X3757675Y4984242D01*
X3762247Y4974844D01*
X3771391Y4965700D01*
X3780536Y4961128D01*
X3799077Y4961128D01*
X1660144Y2206244D02*
G01*
X1660144Y2289555D01*
X1701800Y2247900D02*
G01*
X1618742Y2247900D01*
X1532889Y2192528D02*
G01*
X1578863Y2192528D01*
X1583689Y2233929D01*
X1578863Y2229357D01*
X1565147Y2224786D01*
X1551178Y2224786D01*
X1537462Y2229357D01*
X1528063Y2238755D01*
X1523492Y2252471D01*
X1523492Y2261870D01*
X1528063Y2275586D01*
X1537462Y2284729D01*
X1551178Y2289555D01*
X1565147Y2289555D01*
X1578863Y2284729D01*
X1583689Y2280157D01*
X1588262Y2271013D01*
X1493012Y2192528D02*
G01*
X1456181Y2289555D01*
X1419097Y2192528D02*
G01*
X1456181Y2289555D01*
X1568957Y1669542D02*
G01*
X1573529Y1660144D01*
X1582928Y1651000D01*
X1592071Y1646428D01*
X1610613Y1646428D01*
X1619757Y1651000D01*
X1629155Y1660144D01*
X1633728Y1669542D01*
X1638300Y1683257D01*
X1638300Y1706371D01*
X1633728Y1720342D01*
X1629155Y1729486D01*
X1619757Y1738629D01*
X1610613Y1743455D01*
X1592071Y1743455D01*
X1582928Y1738629D01*
X1573529Y1729486D01*
X1568957Y1720342D01*
X1568957Y1706371D01*
X1592071Y1706371D02*
G01*
X1568957Y1706371D01*
X1538478Y1646428D02*
G01*
X1538478Y1743455D01*
X1538478Y1646428D02*
G01*
X1473962Y1743455D01*
X1473962Y1646428D02*
G01*
X1473962Y1743455D01*
X1443481Y1646428D02*
G01*
X1443481Y1743455D01*
X1443481Y1646428D02*
G01*
X1410970Y1646428D01*
X1397254Y1651000D01*
X1388110Y1660144D01*
X1383284Y1669542D01*
X1378712Y1683257D01*
X1378712Y1706371D01*
X1383284Y1720342D01*
X1388110Y1729486D01*
X1397254Y1738629D01*
X1410970Y1743455D01*
X1443481Y1743455D01*
X4174997Y1377442D02*
G01*
X4174997Y1474470D01*
X4174997Y1377442D02*
G01*
X4142740Y1377442D01*
X4128770Y1382013D01*
X4119625Y1391157D01*
X4115054Y1400555D01*
X4110227Y1414271D01*
X4110227Y1437386D01*
X4115054Y1451355D01*
X4119625Y1460500D01*
X4128770Y1469644D01*
X4142740Y1474470D01*
X4174997Y1474470D01*
X4079747Y1395984D02*
G01*
X4070604Y1391157D01*
X4056888Y1377442D01*
X4056888Y1474470D01*
X3943095Y1358900D02*
G01*
X4026408Y1506728D01*
X3880358Y1377442D02*
G01*
X3880358Y1474470D01*
X3912615Y1377442D02*
G01*
X3848100Y1377442D01*
X3817620Y1377442D02*
G01*
X3752850Y1474470D01*
X3752850Y1377442D02*
G01*
X3817620Y1474470D01*
D35*
X864615Y2844800D02*
G01*
X755650Y2844800D01*
X864615Y2844800D02*
G01*
X755650Y2772155D01*
X864615Y2772155D02*
G01*
X755650Y2772155D01*
X864615Y2737865D02*
G01*
X755650Y2737865D01*
X864615Y2664968D02*
G01*
X755650Y2664968D01*
X812800Y2737865D02*
G01*
X812800Y2664968D01*
X864615Y2630678D02*
G01*
X755650Y2630678D01*
X864615Y2596387D02*
G01*
X755650Y2596387D01*
X864615Y2596387D02*
G01*
X864615Y2528823D01*
X812800Y2596387D02*
G01*
X812800Y2554986D01*
X755650Y2596387D02*
G01*
X755650Y2528823D01*
X864615Y2458212D02*
G01*
X755650Y2458212D01*
X864615Y2494534D02*
G01*
X864615Y2421889D01*
X864615Y2387600D02*
G01*
X755650Y2387600D01*
X864615Y2387600D02*
G01*
X864615Y2351278D01*
X859536Y2335529D01*
X849121Y2325370D01*
X838707Y2320036D01*
X822960Y2314955D01*
X797052Y2314955D01*
X781557Y2320036D01*
X771144Y2325370D01*
X760729Y2335529D01*
X755650Y2351278D01*
X755650Y2387600D01*
X864615Y2249423D02*
G01*
X859536Y2259837D01*
X849121Y2270252D01*
X838707Y2275331D01*
X822960Y2280665D01*
X797052Y2280665D01*
X781557Y2275331D01*
X771144Y2270252D01*
X760729Y2259837D01*
X755650Y2249423D01*
X755650Y2228595D01*
X760729Y2218181D01*
X771144Y2207768D01*
X781557Y2202687D01*
X797052Y2197354D01*
X822960Y2197354D01*
X838707Y2202687D01*
X849121Y2207768D01*
X859536Y2218181D01*
X864615Y2228595D01*
X864615Y2249423D01*
X8940800Y5690615D02*
G01*
X8940800Y5612637D01*
X8945879Y5597144D01*
X8956293Y5586729D01*
X8972041Y5581650D01*
X8982456Y5581650D01*
X8997950Y5586729D01*
X9008363Y5597144D01*
X9013443Y5612637D01*
X9013443Y5690615D01*
X9053068Y5664707D02*
G01*
X9053068Y5669787D01*
X9058147Y5680202D01*
X9063481Y5685536D01*
X9073895Y5690615D01*
X9094470Y5690615D01*
X9104884Y5685536D01*
X9110218Y5680202D01*
X9115297Y5669787D01*
X9115297Y5659373D01*
X9110218Y5648960D01*
X9099804Y5633465D01*
X9047734Y5581650D01*
X9120631Y5581650D01*
X15069820Y484123D02*
G01*
X15069820Y562102D01*
X15064740Y577595D01*
X15054325Y588010D01*
X15038577Y593089D01*
X15028163Y593089D01*
X15012670Y588010D01*
X15002256Y577595D01*
X14997175Y562102D01*
X14997175Y484123D01*
X14962886Y504952D02*
G01*
X14952472Y499618D01*
X14936724Y484123D01*
X14936724Y593089D01*
X15654017Y2728465D02*
G01*
X15654017Y2825493D01*
X15654017Y2728465D02*
G01*
X15594073Y2728465D01*
X15654017Y2774693D02*
G01*
X15617187Y2774693D01*
X15654017Y2825493D02*
G01*
X15594073Y2825493D01*
X15498823Y2742181D02*
G01*
X15507967Y2733037D01*
X15521937Y2728465D01*
X15540479Y2728465D01*
X15554195Y2733037D01*
X15563593Y2742181D01*
X15563593Y2751579D01*
X15558767Y2760723D01*
X15554195Y2765295D01*
X15545051Y2769867D01*
X15517365Y2779265D01*
X15507967Y2783837D01*
X15503395Y2788409D01*
X15498823Y2797807D01*
X15498823Y2811523D01*
X15507967Y2820667D01*
X15521937Y2825493D01*
X15540479Y2825493D01*
X15554195Y2820667D01*
X15563593Y2811523D01*
X15468343Y2728465D02*
G01*
X15468343Y2825493D01*
X15468343Y2728465D02*
G01*
X15426687Y2728465D01*
X15412971Y2733037D01*
X15408399Y2737609D01*
X15403827Y2747007D01*
X15403827Y2760723D01*
X15408399Y2769867D01*
X15412971Y2774693D01*
X15426687Y2779265D01*
X15468343Y2779265D01*
X15373347Y2783837D02*
G01*
X15290035Y2783837D01*
X15259555Y2728465D02*
G01*
X15236441Y2825493D01*
X15213327Y2728465D02*
G01*
X15236441Y2825493D01*
X15213327Y2728465D02*
G01*
X15190467Y2825493D01*
X15167353Y2728465D02*
G01*
X15190467Y2825493D01*
X15136873Y2728465D02*
G01*
X15136873Y2825493D01*
X15136873Y2728465D02*
G01*
X15095217Y2728465D01*
X15081247Y2733037D01*
X15076675Y2737609D01*
X15072103Y2747007D01*
X15072103Y2756151D01*
X15076675Y2765295D01*
X15081247Y2769867D01*
X15095217Y2774693D01*
X15136873Y2774693D01*
X15104361Y2774693D02*
G01*
X15072103Y2825493D01*
X15013937Y2728465D02*
G01*
X15023081Y2733037D01*
X15032479Y2742181D01*
X15037051Y2751579D01*
X15041623Y2765295D01*
X15041623Y2788409D01*
X15037051Y2802379D01*
X15032479Y2811523D01*
X15023081Y2820667D01*
X15013937Y2825493D01*
X14995395Y2825493D01*
X14986251Y2820667D01*
X14977107Y2811523D01*
X14972281Y2802379D01*
X14967709Y2788409D01*
X14967709Y2765295D01*
X14972281Y2751579D01*
X14977107Y2742181D01*
X14986251Y2733037D01*
X14995395Y2728465D01*
X15013937Y2728465D01*
X14909543Y2728465D02*
G01*
X14918687Y2733037D01*
X14928085Y2742181D01*
X14932657Y2751579D01*
X14937229Y2765295D01*
X14937229Y2788409D01*
X14932657Y2802379D01*
X14928085Y2811523D01*
X14918687Y2820667D01*
X14909543Y2825493D01*
X14891001Y2825493D01*
X14881857Y2820667D01*
X14872713Y2811523D01*
X14867887Y2802379D01*
X14863315Y2788409D01*
X14863315Y2765295D01*
X14867887Y2751579D01*
X14872713Y2742181D01*
X14881857Y2733037D01*
X14891001Y2728465D01*
X14909543Y2728465D01*
X14832835Y2728465D02*
G01*
X14832835Y2825493D01*
X14832835Y2728465D02*
G01*
X14796005Y2825493D01*
X14758921Y2728465D02*
G01*
X14796005Y2825493D01*
X14758921Y2728465D02*
G01*
X14758921Y2825493D01*
X14728441Y2783837D02*
G01*
X14645383Y2783837D01*
X14605759Y2728465D02*
G01*
X14554959Y2728465D01*
X14582645Y2765295D01*
X14568675Y2765295D01*
X14559531Y2769867D01*
X14554959Y2774693D01*
X14550387Y2788409D01*
X14550387Y2797807D01*
X14554959Y2811523D01*
X14564103Y2820667D01*
X14578073Y2825493D01*
X14591789Y2825493D01*
X14605759Y2820667D01*
X14610331Y2816095D01*
X14614903Y2806951D01*
X14515081Y2751579D02*
G01*
X14515081Y2747007D01*
X14510509Y2737609D01*
X14505937Y2733037D01*
X14496793Y2728465D01*
X14478251Y2728465D01*
X14469107Y2733037D01*
X14464281Y2737609D01*
X14459709Y2747007D01*
X14459709Y2756151D01*
X14464281Y2765295D01*
X14473679Y2779265D01*
X14519907Y2825493D01*
X14455137Y2825493D01*
D36*
X14138656Y5092700D02*
G01*
X14065758Y5092700D01*
X14138656Y5092700D02*
G01*
X14138656Y5068570D01*
X14135100Y5058155D01*
X14128241Y5051044D01*
X14121129Y5047742D01*
X14110970Y5044186D01*
X14093443Y5044186D01*
X14083029Y5047742D01*
X14076172Y5051044D01*
X14069313Y5058155D01*
X14065758Y5068570D01*
X14065758Y5092700D01*
X14093443Y5021326D02*
G01*
X14093443Y4979670D01*
X14100556Y4979670D01*
X14107413Y4983226D01*
X14110970Y4986781D01*
X14114272Y4993639D01*
X14114272Y5004054D01*
X14110970Y5010912D01*
X14103858Y5017770D01*
X14093443Y5021326D01*
X14086586Y5021326D01*
X14076172Y5017770D01*
X14069313Y5010912D01*
X14065758Y5004054D01*
X14065758Y4993639D01*
X14069313Y4986781D01*
X14076172Y4979670D01*
X14103858Y4918710D02*
G01*
X14110970Y4922265D01*
X14114272Y4932679D01*
X14114272Y4943094D01*
X14110970Y4953507D01*
X14103858Y4956810D01*
X14097000Y4953507D01*
X14093443Y4946650D01*
X14090141Y4929123D01*
X14086586Y4922265D01*
X14079727Y4918710D01*
X14076172Y4918710D01*
X14069313Y4922265D01*
X14065758Y4932679D01*
X14065758Y4943094D01*
X14069313Y4953507D01*
X14076172Y4956810D01*
X14138656Y4895850D02*
G01*
X14135100Y4892547D01*
X14138656Y4888992D01*
X14141958Y4892547D01*
X14138656Y4895850D01*
X14114272Y4892547D02*
G01*
X14065758Y4892547D01*
X14114272Y4824729D02*
G01*
X14058900Y4824729D01*
X14048486Y4828031D01*
X14044929Y4831587D01*
X14041627Y4838445D01*
X14041627Y4848860D01*
X14044929Y4855718D01*
X14103858Y4824729D02*
G01*
X14110970Y4831587D01*
X14114272Y4838445D01*
X14114272Y4848860D01*
X14110970Y4855718D01*
X14103858Y4862829D01*
X14093443Y4866131D01*
X14086586Y4866131D01*
X14076172Y4862829D01*
X14069313Y4855718D01*
X14065758Y4848860D01*
X14065758Y4838445D01*
X14069313Y4831587D01*
X14076172Y4824729D01*
X14114272Y4801870D02*
G01*
X14065758Y4801870D01*
X14100556Y4801870D02*
G01*
X14110970Y4791455D01*
X14114272Y4784344D01*
X14114272Y4773929D01*
X14110970Y4767071D01*
X14100556Y4763770D01*
X14065758Y4763770D01*
X14093443Y4740910D02*
G01*
X14093443Y4699254D01*
X14100556Y4699254D01*
X14107413Y4702810D01*
X14110970Y4706112D01*
X14114272Y4712970D01*
X14114272Y4723384D01*
X14110970Y4730495D01*
X14103858Y4737354D01*
X14093443Y4740910D01*
X14086586Y4740910D01*
X14076172Y4737354D01*
X14069313Y4730495D01*
X14065758Y4723384D01*
X14065758Y4712970D01*
X14069313Y4706112D01*
X14076172Y4699254D01*
X14138656Y4634737D02*
G01*
X14065758Y4634737D01*
X14103858Y4634737D02*
G01*
X14110970Y4641850D01*
X14114272Y4648707D01*
X14114272Y4659121D01*
X14110970Y4665979D01*
X14103858Y4672837D01*
X14093443Y4676394D01*
X14086586Y4676394D01*
X14076172Y4672837D01*
X14069313Y4665979D01*
X14065758Y4659121D01*
X14065758Y4648707D01*
X14069313Y4641850D01*
X14076172Y4634737D01*
X14138656Y4558537D02*
G01*
X14065758Y4558537D01*
X14103858Y4558537D02*
G01*
X14110970Y4551679D01*
X14114272Y4544821D01*
X14114272Y4534407D01*
X14110970Y4527550D01*
X14103858Y4520437D01*
X14093443Y4517136D01*
X14086586Y4517136D01*
X14076172Y4520437D01*
X14069313Y4527550D01*
X14065758Y4534407D01*
X14065758Y4544821D01*
X14069313Y4551679D01*
X14076172Y4558537D01*
X14114272Y4490720D02*
G01*
X14065758Y4469892D01*
X14114272Y4449063D02*
G01*
X14065758Y4469892D01*
X14052041Y4476750D01*
X14044929Y4483862D01*
X14041627Y4490720D01*
X14041627Y4494276D01*
X14138656Y4338320D02*
G01*
X14083029Y4338320D01*
X14072870Y4341876D01*
X14069313Y4345178D01*
X14065758Y4352289D01*
X14065758Y4359147D01*
X14069313Y4366005D01*
X14072870Y4369562D01*
X14083029Y4372863D01*
X14090141Y4372863D01*
X14114272Y4298187D02*
G01*
X14110970Y4305045D01*
X14103858Y4311904D01*
X14093443Y4315460D01*
X14086586Y4315460D01*
X14076172Y4311904D01*
X14069313Y4305045D01*
X14065758Y4298187D01*
X14065758Y4287773D01*
X14069313Y4280915D01*
X14076172Y4273804D01*
X14086586Y4270502D01*
X14093443Y4270502D01*
X14103858Y4273804D01*
X14110970Y4280915D01*
X14114272Y4287773D01*
X14114272Y4298187D01*
X14138656Y4247642D02*
G01*
X14065758Y4247642D01*
X14103858Y4247642D02*
G01*
X14110970Y4240529D01*
X14114272Y4233671D01*
X14114272Y4223257D01*
X14110970Y4216400D01*
X14103858Y4209542D01*
X14093443Y4205986D01*
X14086586Y4205986D01*
X14076172Y4209542D01*
X14069313Y4216400D01*
X14065758Y4223257D01*
X14065758Y4233671D01*
X14069313Y4240529D01*
X14076172Y4247642D01*
X14103858Y4145026D02*
G01*
X14110970Y4148581D01*
X14114272Y4158995D01*
X14114272Y4169410D01*
X14110970Y4179570D01*
X14103858Y4183126D01*
X14097000Y4179570D01*
X14093443Y4172712D01*
X14090141Y4155439D01*
X14086586Y4148581D01*
X14079727Y4145026D01*
X14076172Y4145026D01*
X14069313Y4148581D01*
X14065758Y4158995D01*
X14065758Y4169410D01*
X14069313Y4179570D01*
X14076172Y4183126D01*
X14114272Y4104894D02*
G01*
X14110970Y4111752D01*
X14103858Y4118610D01*
X14093443Y4122165D01*
X14086586Y4122165D01*
X14076172Y4118610D01*
X14069313Y4111752D01*
X14065758Y4104894D01*
X14065758Y4094479D01*
X14069313Y4087621D01*
X14076172Y4080510D01*
X14086586Y4077207D01*
X14093443Y4077207D01*
X14103858Y4080510D01*
X14110970Y4087621D01*
X14114272Y4094479D01*
X14114272Y4104894D01*
X14114272Y4054347D02*
G01*
X14065758Y4054347D01*
X14100556Y4054347D02*
G01*
X14110970Y4043934D01*
X14114272Y4037076D01*
X14114272Y4026662D01*
X14110970Y4019550D01*
X14100556Y4016247D01*
X14065758Y4016247D01*
D35*
X3518915Y6273800D02*
G01*
X3409950Y6273800D01*
X3409950Y6273800D02*
G01*
X3409950Y6211570D01*
X3518915Y6177279D02*
G01*
X3409950Y6177279D01*
X3518915Y6177279D02*
G01*
X3518915Y6109715D01*
X3467100Y6177279D02*
G01*
X3467100Y6135623D01*
X3409950Y6177279D02*
G01*
X3409950Y6109715D01*
X3518915Y6075426D02*
G01*
X3409950Y6075426D01*
X3518915Y6075426D02*
G01*
X3518915Y6038850D01*
X3513836Y6023355D01*
X3503422Y6012942D01*
X3493008Y6007862D01*
X3477259Y6002528D01*
X3451352Y6002528D01*
X3435858Y6007862D01*
X3425443Y6012942D01*
X3415029Y6023355D01*
X3409950Y6038850D01*
X3409950Y6075426D01*
X860044Y595884D02*
G01*
X901700Y704850D01*
X860044Y595884D02*
G01*
X818642Y704850D01*
X886205Y668528D02*
G01*
X834136Y668528D01*
X784352Y595884D02*
G01*
X784352Y704850D01*
X784352Y595884D02*
G01*
X711454Y704850D01*
X711454Y595884D02*
G01*
X711454Y704850D01*
X599439Y621792D02*
G01*
X604520Y611378D01*
X614934Y600963D01*
X625347Y595884D01*
X646176Y595884D01*
X656589Y600963D01*
X666750Y611378D01*
X672084Y621792D01*
X677163Y637539D01*
X677163Y663447D01*
X672084Y678942D01*
X666750Y689355D01*
X656589Y699770D01*
X646176Y704850D01*
X625347Y704850D01*
X614934Y699770D01*
X604520Y689355D01*
X599439Y678942D01*
X599439Y663447D01*
X625347Y663447D02*
G01*
X599439Y663447D01*
X565150Y595884D02*
G01*
X565150Y704850D01*
X565150Y704850D02*
G01*
X502665Y704850D01*
X437134Y595884D02*
G01*
X447547Y600963D01*
X457962Y611378D01*
X463295Y621792D01*
X468376Y637539D01*
X468376Y663447D01*
X463295Y678942D01*
X457962Y689355D01*
X447547Y699770D01*
X437134Y704850D01*
X416560Y704850D01*
X406145Y699770D01*
X395731Y689355D01*
X390397Y678942D01*
X385318Y663447D01*
X385318Y637539D01*
X390397Y621792D01*
X395731Y611378D01*
X406145Y600963D01*
X416560Y595884D01*
X437134Y595884D01*
X273050Y621792D02*
G01*
X278129Y611378D01*
X288544Y600963D01*
X298957Y595884D01*
X319786Y595884D01*
X330200Y600963D01*
X340613Y611378D01*
X345694Y621792D01*
X351028Y637539D01*
X351028Y663447D01*
X345694Y678942D01*
X340613Y689355D01*
X330200Y699770D01*
X319786Y704850D01*
X298957Y704850D01*
X288544Y699770D01*
X278129Y689355D01*
X273050Y678942D01*
X273050Y663447D01*
X298957Y663447D02*
G01*
X273050Y663447D01*
X17577816Y2933700D02*
G01*
X17468850Y2933700D01*
X17577816Y2933700D02*
G01*
X17577816Y2886963D01*
X17572736Y2871470D01*
X17567402Y2866136D01*
X17556988Y2861055D01*
X17546574Y2861055D01*
X17536159Y2866136D01*
X17531079Y2871470D01*
X17526000Y2886963D01*
X17526000Y2933700D01*
X17526000Y2897378D02*
G01*
X17468850Y2861055D01*
X17577816Y2826765D02*
G01*
X17468850Y2826765D01*
X17577816Y2826765D02*
G01*
X17577816Y2759202D01*
X17526000Y2826765D02*
G01*
X17526000Y2785110D01*
X17468850Y2826765D02*
G01*
X17468850Y2759202D01*
X17577816Y2724912D02*
G01*
X17468850Y2724912D01*
X17468850Y2724912D02*
G01*
X17468850Y2662428D01*
X17577816Y2586736D02*
G01*
X17468850Y2628137D01*
X17577816Y2586736D02*
G01*
X17468850Y2545079D01*
X17505172Y2612644D02*
G01*
X17505172Y2560573D01*
X17577816Y2510789D02*
G01*
X17526000Y2469134D01*
X17468850Y2469134D01*
X17577816Y2427731D02*
G01*
X17526000Y2469134D01*
D31*
X711200Y5207000D02*
G01*
X457200Y5207000D01*
X457200Y5207000D02*
G01*
X457200Y6477000D01*
X711200Y5207000D02*
G01*
X711200Y6477000D01*
X711200Y6477000D02*
G01*
X457200Y6477000D01*
D32*
X897412Y4618736D02*
G01*
X551464Y4618736D01*
X301528Y4618736D01*
X301528Y4368800D01*
X301528Y3356863D01*
X551464Y3356863D01*
X897412Y3356863D01*
X901476Y4305300D02*
G01*
X741964Y4305300D01*
X741964Y4178300D01*
X901476Y4178300D01*
X901476Y4051300D02*
G01*
X741964Y4051300D01*
X741964Y3924300D01*
X901476Y3924300D01*
X901476Y3797300D02*
G01*
X741964Y3797300D01*
X741964Y3670300D01*
X901476Y3670300D01*
X901476Y3356863D02*
G01*
X901476Y4368800D01*
X901476Y4618736D01*
D10*
X3632200Y5397500D02*
G01*
X1854200Y5397500D01*
X1854200Y5397500D02*
G01*
X1854200Y1079500D01*
X1854200Y1079500D02*
G01*
X3632200Y1079500D01*
X3632200Y1079500D02*
G01*
X3632200Y5397500D01*
X3124200Y5016500D02*
G01*
X3124200Y5778500D01*
X2362200Y5778500D01*
X2362200Y5016500D01*
X3124200Y5016500D01*
D32*
X304800Y2673248D02*
G01*
X304800Y2254351D01*
D10*
X13248157Y524535D02*
G01*
X13248157Y5524525D01*
X4648174Y5524525D01*
X4648174Y524535D01*
X13248157Y524535D01*
X12608077Y524535D02*
G01*
X12608153Y5524525D01*
X5688177Y524535D02*
G01*
X5688177Y5524525D01*
X4978171Y1243355D02*
G01*
X4978171Y4794275D01*
X4728235Y4794275D01*
X4728235Y1243355D01*
X4978171Y1243355D01*
X15397479Y5526242D02*
G01*
X15397479Y5025862D01*
X14655800Y5025862D01*
X14655800Y5526242D01*
X15394940Y5462742D02*
G01*
X14658340Y5462742D01*
X15356840Y5025862D02*
G01*
X15397479Y5025862D01*
X15397479Y5180802D01*
X14706600Y5025862D02*
G01*
X14655800Y5025862D01*
X14655800Y5190962D01*
X15397479Y5429722D02*
G01*
X15397479Y5521162D01*
X14655800Y5429722D02*
G01*
X14655800Y5521162D01*
X15356840Y5531322D02*
G01*
X15372435Y5527842D01*
X15372435Y5527842D02*
G01*
X15397479Y5528782D01*
X14655800Y5526242D02*
G01*
X14681555Y5527842D01*
X14681555Y5527842D02*
G01*
X14693900Y5528782D01*
X15321635Y5565942D02*
G01*
X14732355Y5565942D01*
X15321635Y5586262D02*
G01*
X14732355Y5586262D01*
X15336875Y5548162D02*
G01*
X15336875Y5550702D01*
X15336875Y5550702D02*
G01*
X15336875Y5571022D01*
X14717115Y5548162D02*
G01*
X14717115Y5550702D01*
X14717115Y5550702D02*
G01*
X14717115Y5571022D01*
X15394940Y5528782D02*
G01*
X15420340Y5571962D01*
X15422879Y5574502D02*
G01*
X15402915Y5586262D01*
X15402915Y5586262D02*
G01*
X15374975Y5540542D01*
X14658340Y5528782D02*
G01*
X14632940Y5571962D01*
X14632940Y5574502D02*
G01*
X14651075Y5586262D01*
X14651075Y5586262D02*
G01*
X14679015Y5543082D01*
X15732759Y5020782D02*
G01*
X15732759Y4969982D01*
X15580359Y4969982D01*
X15580359Y5013960D01*
X15783559Y5376382D02*
G01*
X15529559Y5376382D01*
X15529559Y5020782D01*
X15783559Y5020782D01*
X15783559Y5376382D01*
X15732759Y5376382D01*
X15732759Y5427182D01*
X15580359Y5427182D01*
X15580359Y5376382D01*
X14478000Y5020782D02*
G01*
X14478000Y4969982D01*
X14325600Y4969982D01*
X14325600Y5011420D01*
X14528800Y5376382D02*
G01*
X14274800Y5376382D01*
X14274800Y5020782D01*
X14528800Y5020782D01*
X14528800Y5376382D01*
X14478000Y5376382D01*
X14478000Y5427182D01*
X14325600Y5427182D01*
X14325600Y5376382D01*
X15958563Y673600D02*
G01*
X15958563Y2023610D01*
X15958563Y3223506D01*
X15958563Y3223506D02*
G01*
X14158465Y3223506D01*
X15958563Y673600D02*
G01*
X14158465Y673600D01*
X14158465Y673600D02*
G01*
X14158465Y3223506D01*
X15958563Y1273548D02*
G01*
X14358617Y1273548D01*
X14158465Y1273548D01*
D33*
X14302737Y1222240D02*
G01*
X14302737Y759960D01*
X14846297Y759960D01*
X14846297Y1019040D01*
X15105377Y1019040D01*
X15105377Y759960D01*
X15359377Y759960D01*
X15359377Y1019040D01*
X15600677Y1019040D01*
X15600677Y759960D01*
X15803877Y759960D01*
X15803877Y1222240D01*
X14569437Y1229860D02*
G01*
X14569437Y761230D01*
D10*
X15811497Y1527040D02*
G01*
X15811497Y3051040D01*
X14287497Y3051040D01*
X14287497Y1527040D01*
X15811497Y1527040D01*
X16219497Y637542D02*
G01*
X13879502Y637542D01*
X13779502Y737542D02*
G01*
X13779502Y5363535D01*
X13879502Y5463534D02*
G01*
X16219497Y5463534D01*
X16319497Y5363535D02*
G01*
X16319497Y737542D01*
D32*
X3390900Y5930900D02*
G01*
X3139440Y5930900D01*
X3139440Y6438900D01*
X3390900Y6438900D01*
X3390900Y5930900D01*
X393700Y736600D02*
G01*
X393700Y990600D01*
X1409700Y990600D01*
X1409700Y736600D01*
X1219200Y736600D01*
D34*
X393700Y736600D02*
G01*
X1219200Y736600D01*
D10*
X17437100Y3950594D02*
G01*
X17183100Y3950594D01*
X17183100Y4223699D02*
G01*
X17183100Y1638300D01*
X17437100Y4223699D02*
G01*
X17183100Y4223699D01*
X17437100Y1643700D02*
G01*
X17437100Y4223699D01*
X17437100Y1643700D02*
G01*
X17183100Y1643700D01*
D32*
G75*
G01*
X304800Y2673248D02*
G02*
X724738Y2542438I165098J-209455D01*
G75*
G01*
X724738Y2385162D02*
G02*
X304800Y2254352I-254840J78645D01*
G75*
G01*
X723900Y2527300D02*
G02*
X723900Y2400300I-285739J-63500D01*
G75*
G01*
X723900Y2400300D02*
G02*
X660400Y2273300I-285740J63495D01*
G75*
G01*
X660400Y2654300D02*
G02*
X723900Y2400300I-222238J-190497D01*
D10*
G75*
G01*
X15379700Y5528782D02*
G02*
X15335250Y5544276I-6997J51434D01*
G75*
G01*
X15335250Y5548848D02*
G03*
X15320010Y5563326I-15002J-531D01*
G75*
G01*
X15335250Y5569422D02*
G03*
X15320010Y5584916I-15004J485D01*
G75*
G01*
X14730476Y5584916D02*
G03*
X14715236Y5569422I-236J-15009D01*
G75*
G01*
X14730476Y5563326D02*
G03*
X14715236Y5548848I-238J-15009D01*
G75*
G01*
X14715236Y5544276D02*
G02*
X14676120Y5528782I-32959J26085D01*
G75*
G01*
X15373604Y5538942D02*
G03*
X15369540Y5528782I11596J-10531D01*
G75*
G01*
X14676374Y5539450D02*
G02*
X14678660Y5528782I-13209J-8409D01*
G75*
G01*
X13879502Y637543D02*
G02*
X13779503Y737542I0J99999D01*
G75*
G01*
X13779503Y5363535D02*
G02*
X13879502Y5463535I99999J0D01*
G75*
G01*
X16219498Y5463535D02*
G02*
X16319497Y5363535I0J-100000D01*
G75*
G01*
X16319497Y737542D02*
G02*
X16219498Y637543I-99999J0D01*
G75*
G01
X15681960Y5211293D02*
G03X15681960Y5211293I-12700J0D01*
G75*
G01
X15656560Y5185893D02*
G03X15656560Y5185893I-12700J0D01*
G75*
G01
X15681960Y5198593D02*
G03X15681960Y5198593I-25400J0D01*
G75*
G01
X15707360Y5198593D02*
G03X15707360Y5198593I-50800J0D01*
G75*
G01
X15732760Y5198593D02*
G03X15732760Y5198593I-76200J0D01*
G75*
G01
X14427200Y5211293D02*
G03X14427200Y5211293I-12700J0D01*
G75*
G01
X14401800Y5185893D02*
G03X14401800Y5185893I-12700J0D01*
G75*
G01
X14427200Y5198593D02*
G03X14427200Y5198593I-25400J0D01*
G75*
G01
X14452600Y5198593D02*
G03X14452600Y5198593I-50800J0D01*
G75*
G01
X14478000Y5198593D02*
G03X14478000Y5198593I-76200J0D01*
M02*
