G04 Layer: BottomLayer*
G04 EasyEDA v6.4.17, 2021-03-15T19:29:33+07:00*
G04 1d297f51d7db443abc13b46094b112d6,e617fcbdf3ae42ba82bc49894c1518df,10*
G04 Gerber Generator version 0.2*
G04 Scale: 100 percent, Rotated: No, Reflected: No *
G04 Dimensions in millimeters *
G04 leading zeros omitted , absolute positions ,4 integer and 5 decimal *
%FSLAX45Y45*%
%MOMM*%

%ADD11C,1.4986*%
%ADD12R,1.4986X1.4986*%
%ADD13R,1.2954X1.2954*%
%ADD14C,1.2954*%
%ADD15C,1.7780*%
%ADD16R,1.7780X1.7780*%
%ADD17C,1.8796*%
%ADD18C,1.8000*%
%ADD19R,1.8000X1.8000*%
%ADD20C,1.5240*%
%ADD21R,1.5748X1.5748*%
%ADD22C,1.5748*%
%ADD23R,1.7000X1.7000*%
%ADD24C,1.7000*%
%ADD25R,1.7000X1.5748*%
%ADD26C,1.0000*%
%ADD27C,0.5000*%
%ADD28C,1.5000*%
%ADD29C,1.3000*%
%ADD30C,0.6000*%

%LPD*%
D26*
X13906500Y2032000D02*
G01*
X5295900Y1981200D01*
X4847590Y2135886D01*
D27*
X14987524Y1892554D02*
G01*
X14987524Y2208276D01*
X14274800Y2921000D01*
X13718286Y2921000D01*
X13235686Y2438400D01*
X6197600Y2438400D01*
X5738113Y2897886D01*
X4847590Y2897886D01*
X15024100Y1866900D02*
G01*
X14020800Y889000D01*
X4305300Y889000D01*
X4305300Y4675631D01*
X4847843Y4675631D01*
D28*
X17310100Y1790700D02*
G01*
X17170400Y1651000D01*
X16408400Y1651000D01*
X17310100Y1790700D02*
G01*
X17310100Y-228600D01*
X3873500Y-228600D01*
X3873500Y2070100D01*
X3721100Y2222500D01*
X3505200Y2222500D01*
D29*
X3505200Y3746500D02*
G01*
X3238500Y3746500D01*
X3238500Y-38100D01*
X-393700Y-38100D01*
X-393700Y4089400D01*
X152400Y4635500D01*
X774700Y4635500D01*
X774700Y4064000D01*
X571500Y3860800D01*
D28*
X571500Y3606800D02*
G01*
X825500Y3227831D01*
X825500Y2425700D01*
X609600Y2209800D01*
X469900Y2209800D01*
D29*
X584200Y5334000D02*
G01*
X935228Y5198871D01*
X1219200Y4914900D01*
X1219200Y3898900D01*
X864615Y3544315D01*
X571500Y3606800D01*
D28*
X17310100Y3822700D02*
G01*
X16192500Y3810000D01*
X16192500Y3810000D01*
X17310100Y3568700D02*
G01*
X16205200Y3568700D01*
X16192500Y3556000D01*
X17310100Y3314700D02*
G01*
X16205200Y3314700D01*
X16192500Y3302000D01*
X17310100Y3060700D02*
G01*
X16205200Y3060700D01*
X16192500Y3048000D01*
X17310100Y2806700D02*
G01*
X17297400Y2794000D01*
X16192500Y2794000D01*
X17310100Y2552700D02*
G01*
X17297400Y2540000D01*
X16192500Y2540000D01*
X17310100Y2298700D02*
G01*
X17297400Y2286000D01*
X16192500Y2286000D01*
X17310100Y2044700D02*
G01*
X17297400Y2032000D01*
X16192500Y2032000D01*
X17310100Y4076700D02*
G01*
X17310100Y5334000D01*
X16192500Y5334000D01*
X13906500Y3302000D02*
G01*
X14122400Y3302000D01*
X14668500Y3848100D01*
X14668500Y6007100D01*
X3733800Y6007100D01*
X3733800Y3492500D01*
X3505200Y3492500D01*
X3505200Y4254500D02*
G01*
X3175000Y4254500D01*
X3175000Y5829300D01*
X3492500Y5829300D01*
X3492500Y6311900D01*
X3263900Y6311900D01*
X16192500Y5334000D02*
G01*
X14808200Y6718300D01*
X-177800Y6718300D01*
X-177800Y5334000D01*
X584200Y5334000D01*
D26*
X469900Y2717800D02*
G01*
X228600Y2959100D01*
X228600Y3644900D01*
X241300Y3784600D01*
X254000Y3721100D01*
X241300Y3759200D02*
G01*
X254000Y3759200D01*
X254000Y3784600D01*
X254000Y4368800D01*
X571500Y4368800D01*
D28*
X469900Y2463800D02*
G01*
X-88900Y2463800D01*
X-88900Y304800D01*
X-25400Y241300D01*
X2959100Y241300D01*
X2959100Y4000500D01*
X3505200Y4000500D01*
X3263900Y6057900D02*
G01*
X2834716Y6057900D01*
X2834716Y5979665D01*
X2442207Y5979665D01*
X2442209Y5979668D02*
G01*
X2641600Y5979668D01*
X2641600Y2120900D01*
X2235200Y1714500D01*
X1981200Y1714500D01*
X2442209Y5979668D02*
G01*
X2442209Y6350000D01*
X584200Y6350000D01*
X584200Y5842000D02*
G01*
X1917700Y5842000D01*
X2311400Y5448300D01*
X2311400Y3492500D01*
X1981200Y3492500D01*
X584200Y5588000D02*
G01*
X1409700Y5588000D01*
X1574800Y5422900D01*
X1574800Y3746500D01*
X1981200Y3746500D01*
D29*
X13906500Y762000D02*
G01*
X13906500Y76200D01*
X4140200Y76200D01*
X4140200Y5156200D01*
X4305300Y5321300D01*
X5473700Y5321300D01*
X5473700Y4421631D01*
X4847590Y4421631D01*
X13906500Y1016000D02*
G01*
X13792200Y1130300D01*
X4508500Y1130300D01*
X4508500Y1701800D01*
X4688586Y1881886D01*
X4847590Y1881886D01*
X13906500Y3556000D02*
G01*
X13995400Y3556000D01*
X14338300Y3898900D01*
X14338300Y4310887D01*
X14224000Y4425187D01*
X14224000Y5727700D01*
X3949700Y5727700D01*
X3949700Y3238500D01*
X3505200Y3238500D01*
D26*
X4847590Y2389886D02*
G01*
X4622800Y2389886D01*
X4622800Y3151631D01*
X4847590Y3151631D01*
X4847590Y1881886D02*
G01*
X4457700Y1881886D01*
X4457700Y3405631D01*
X4847590Y3405631D01*
D28*
X469900Y2209800D02*
G01*
X190500Y2209800D01*
X190500Y493013D01*
X1663700Y493013D01*
X1663700Y1905000D01*
X1981200Y2222500D01*
X1282700Y863600D02*
G01*
X1282700Y1879600D01*
X1879600Y2476500D01*
X1981200Y2476500D01*
X1028700Y863600D02*
G01*
X1028700Y1955800D01*
X1803400Y2730500D01*
X1981200Y2730500D01*
X774700Y863600D02*
G01*
X774700Y2019300D01*
X1739900Y2984500D01*
X1981200Y2984500D01*
D26*
X13906500Y2794000D02*
G01*
X13817600Y2794000D01*
X13284200Y2260600D01*
X5143500Y2260600D01*
X5014219Y2389888D01*
X4847592Y2389888D01*
X13906500Y3810000D02*
G01*
X13703300Y3606800D01*
X5130800Y3606800D01*
X4847590Y3659631D01*
D30*
X16332200Y1663700D02*
G01*
X15849600Y1638300D01*
X15849600Y3721100D01*
X16192500Y4064000D01*
D29*
X13906500Y4318000D02*
G01*
X13502134Y3913634D01*
X4847592Y3913634D01*
D30*
X16192500Y762000D02*
G01*
X15061691Y1892807D01*
X14987526Y1892807D01*
X14987526Y1892554D01*
D26*
X13906500Y4572000D02*
G01*
X13502134Y4167634D01*
X4847592Y4167634D01*
D30*
X241300Y3733800D02*
G01*
X660400Y3733800D01*
X990600Y4051300D01*
X990600Y4686300D01*
X774700Y4902200D01*
X-88900Y4902200D01*
X-596900Y4394200D01*
X-596900Y-228600D01*
X4025900Y-228600D01*
X4038600Y-228600D01*
X4025900Y-228600D01*
X571500Y3606800D02*
G01*
X571500Y3544315D01*
X571500Y3544315D02*
G01*
X571500Y3481831D01*
X584200Y5334000D02*
G01*
X584200Y5198871D01*
D27*
X13906500Y2540000D02*
G01*
X14287500Y2540000D01*
X14287500Y2197100D01*
X14071600Y1905000D01*
X5651500Y1854200D01*
X5425186Y1627886D01*
X4847590Y1627886D01*
D11*
G01*
X584200Y6350000D03*
G01*
X584200Y6096000D03*
G01*
X584200Y5842000D03*
G01*
X584200Y5588000D03*
D12*
G01*
X584200Y5334000D03*
D13*
G01*
X571500Y3606800D03*
D14*
G01*
X571500Y3860800D03*
G01*
X571500Y4114800D03*
G01*
X571500Y4368800D03*
D15*
G01*
X1981200Y5016500D03*
G01*
X1981200Y4762500D03*
G01*
X1981200Y4508500D03*
G01*
X1981200Y4254500D03*
G01*
X1981200Y4000500D03*
G01*
X1981200Y3746500D03*
G01*
X1981200Y3492500D03*
G01*
X1981200Y3238500D03*
G01*
X1981200Y2984500D03*
G01*
X1981200Y2730500D03*
G01*
X1981200Y2476500D03*
G01*
X1981200Y2222500D03*
G01*
X1981200Y1968500D03*
G01*
X1981200Y1714500D03*
G01*
X1981200Y1460500D03*
G01*
X3505200Y5016500D03*
G01*
X3505200Y4762500D03*
G01*
X3505200Y4508500D03*
G01*
X3505200Y4254500D03*
G01*
X3505200Y4000500D03*
G01*
X3505200Y3746500D03*
G01*
X3505200Y3492500D03*
G01*
X3505200Y3238500D03*
G01*
X3505200Y2984500D03*
G01*
X3505200Y2730500D03*
G01*
X3505200Y2476500D03*
G01*
X3505200Y2222500D03*
G01*
X3505200Y1968500D03*
G01*
X3505200Y1714500D03*
D16*
G01*
X3505200Y1460500D03*
D17*
G01*
X469900Y2209800D03*
G01*
X469900Y2463800D03*
G01*
X469900Y2717800D03*
D18*
G01*
X4847590Y1373886D03*
G01*
X4847590Y1627886D03*
G01*
X4847590Y1881886D03*
G01*
X4847590Y2135886D03*
G01*
X4847590Y2389886D03*
G01*
X4847590Y2643886D03*
G01*
X4847590Y2897886D03*
G01*
X4847590Y3151631D03*
G01*
X4847590Y3405631D03*
G01*
X4847590Y3659631D03*
G01*
X4847590Y3913631D03*
G01*
X4847590Y4167631D03*
G01*
X4847590Y4421631D03*
D19*
G01*
X4847869Y4675530D03*
D18*
G01*
X12947904Y2643886D03*
G01*
X12947904Y2897886D03*
G01*
X12947904Y3151631D03*
D19*
G01*
X12947904Y3405631D03*
D20*
G01*
X16192500Y762000D03*
G01*
X16192500Y1016000D03*
G01*
X16192500Y1270000D03*
G01*
X16192500Y1524000D03*
G01*
X16192500Y1778000D03*
G01*
X16192500Y2032000D03*
G01*
X16192500Y2286000D03*
G01*
X16192500Y2540000D03*
G01*
X16192500Y2794000D03*
G01*
X16192500Y3048000D03*
G01*
X16192500Y3302000D03*
G01*
X16192500Y3556000D03*
G01*
X16192500Y3810000D03*
G01*
X16192500Y4064000D03*
G01*
X16192500Y4318000D03*
G01*
X16192500Y4572000D03*
G01*
X16192500Y4826000D03*
G01*
X16192500Y5080000D03*
G01*
X16192500Y5334000D03*
G01*
X13906500Y5334000D03*
G01*
X13906500Y5080000D03*
G01*
X13906500Y4826000D03*
G01*
X13906500Y4572000D03*
G01*
X13906500Y4318000D03*
G01*
X13906500Y4064000D03*
G01*
X13906500Y3810000D03*
G01*
X13906500Y3556000D03*
G01*
X13906500Y3302000D03*
G01*
X13906500Y3048000D03*
G01*
X13906500Y2794000D03*
G01*
X13906500Y2540000D03*
G01*
X13906500Y2286000D03*
G01*
X13906500Y2032000D03*
G01*
X13906500Y1778000D03*
G01*
X13906500Y1524000D03*
G01*
X13906500Y1270000D03*
G01*
X13906500Y1016000D03*
G01*
X13906500Y762000D03*
D21*
G01*
X3263900Y6311900D03*
D22*
G01*
X3263900Y6057900D03*
D23*
G01*
X1282700Y863600D03*
D24*
G01*
X1028700Y863600D03*
G01*
X774700Y863600D03*
G01*
X520700Y863600D03*
G01*
X17310100Y1790700D03*
G01*
X17310100Y2044700D03*
G01*
X17310100Y2298700D03*
G01*
X17310100Y2552700D03*
G01*
X17310100Y2806700D03*
G01*
X17310100Y3060700D03*
G01*
X17310100Y3314700D03*
G01*
X17310100Y3568700D03*
G01*
X17310100Y3822700D03*
D25*
G01*
X17310100Y4076700D03*
M02*
