G04 Layer: TopLayer*
G04 EasyEDA v6.4.17, 2021-03-15T19:29:33+07:00*
G04 1d297f51d7db443abc13b46094b112d6,e617fcbdf3ae42ba82bc49894c1518df,10*
G04 Gerber Generator version 0.2*
G04 Scale: 100 percent, Rotated: No, Reflected: No *
G04 Dimensions in millimeters *
G04 leading zeros omitted , absolute positions ,4 integer and 5 decimal *
%FSLAX45Y45*%
%MOMM*%

%ADD11C,1.4986*%
%ADD12R,1.4986X1.4986*%
%ADD13R,1.2954X1.2954*%
%ADD14C,1.2954*%
%ADD15C,1.7780*%
%ADD16R,1.7780X1.7780*%
%ADD17C,1.8796*%
%ADD18C,1.8000*%
%ADD19R,1.8000X1.8000*%
%ADD20C,1.5240*%
%ADD21R,1.5748X1.5748*%
%ADD22C,1.5748*%
%ADD23R,1.7000X1.7000*%
%ADD24C,1.7000*%
%ADD25R,1.7000X1.5748*%

%LPD*%
D11*
G01*
X584200Y6350000D03*
G01*
X584200Y6096000D03*
G01*
X584200Y5842000D03*
G01*
X584200Y5588000D03*
D12*
G01*
X584200Y5334000D03*
D13*
G01*
X571500Y3606800D03*
D14*
G01*
X571500Y3860800D03*
G01*
X571500Y4114800D03*
G01*
X571500Y4368800D03*
D15*
G01*
X1981200Y5016500D03*
G01*
X1981200Y4762500D03*
G01*
X1981200Y4508500D03*
G01*
X1981200Y4254500D03*
G01*
X1981200Y4000500D03*
G01*
X1981200Y3746500D03*
G01*
X1981200Y3492500D03*
G01*
X1981200Y3238500D03*
G01*
X1981200Y2984500D03*
G01*
X1981200Y2730500D03*
G01*
X1981200Y2476500D03*
G01*
X1981200Y2222500D03*
G01*
X1981200Y1968500D03*
G01*
X1981200Y1714500D03*
G01*
X1981200Y1460500D03*
G01*
X3505200Y5016500D03*
G01*
X3505200Y4762500D03*
G01*
X3505200Y4508500D03*
G01*
X3505200Y4254500D03*
G01*
X3505200Y4000500D03*
G01*
X3505200Y3746500D03*
G01*
X3505200Y3492500D03*
G01*
X3505200Y3238500D03*
G01*
X3505200Y2984500D03*
G01*
X3505200Y2730500D03*
G01*
X3505200Y2476500D03*
G01*
X3505200Y2222500D03*
G01*
X3505200Y1968500D03*
G01*
X3505200Y1714500D03*
D16*
G01*
X3505200Y1460500D03*
D17*
G01*
X469900Y2209800D03*
G01*
X469900Y2463800D03*
G01*
X469900Y2717800D03*
D18*
G01*
X4847590Y1373886D03*
G01*
X4847590Y1627886D03*
G01*
X4847590Y1881886D03*
G01*
X4847590Y2135886D03*
G01*
X4847590Y2389886D03*
G01*
X4847590Y2643886D03*
G01*
X4847590Y2897886D03*
G01*
X4847590Y3151631D03*
G01*
X4847590Y3405631D03*
G01*
X4847590Y3659631D03*
G01*
X4847590Y3913631D03*
G01*
X4847590Y4167631D03*
G01*
X4847590Y4421631D03*
D19*
G01*
X4847869Y4675530D03*
D18*
G01*
X12947904Y2643886D03*
G01*
X12947904Y2897886D03*
G01*
X12947904Y3151631D03*
D19*
G01*
X12947904Y3405631D03*
D20*
G01*
X16192500Y762000D03*
G01*
X16192500Y1016000D03*
G01*
X16192500Y1270000D03*
G01*
X16192500Y1524000D03*
G01*
X16192500Y1778000D03*
G01*
X16192500Y2032000D03*
G01*
X16192500Y2286000D03*
G01*
X16192500Y2540000D03*
G01*
X16192500Y2794000D03*
G01*
X16192500Y3048000D03*
G01*
X16192500Y3302000D03*
G01*
X16192500Y3556000D03*
G01*
X16192500Y3810000D03*
G01*
X16192500Y4064000D03*
G01*
X16192500Y4318000D03*
G01*
X16192500Y4572000D03*
G01*
X16192500Y4826000D03*
G01*
X16192500Y5080000D03*
G01*
X16192500Y5334000D03*
G01*
X13906500Y5334000D03*
G01*
X13906500Y5080000D03*
G01*
X13906500Y4826000D03*
G01*
X13906500Y4572000D03*
G01*
X13906500Y4318000D03*
G01*
X13906500Y4064000D03*
G01*
X13906500Y3810000D03*
G01*
X13906500Y3556000D03*
G01*
X13906500Y3302000D03*
G01*
X13906500Y3048000D03*
G01*
X13906500Y2794000D03*
G01*
X13906500Y2540000D03*
G01*
X13906500Y2286000D03*
G01*
X13906500Y2032000D03*
G01*
X13906500Y1778000D03*
G01*
X13906500Y1524000D03*
G01*
X13906500Y1270000D03*
G01*
X13906500Y1016000D03*
G01*
X13906500Y762000D03*
D21*
G01*
X3263900Y6311900D03*
D22*
G01*
X3263900Y6057900D03*
D23*
G01*
X1282700Y863600D03*
D24*
G01*
X1028700Y863600D03*
G01*
X774700Y863600D03*
G01*
X520700Y863600D03*
G01*
X17310100Y1790700D03*
G01*
X17310100Y2044700D03*
G01*
X17310100Y2298700D03*
G01*
X17310100Y2552700D03*
G01*
X17310100Y2806700D03*
G01*
X17310100Y3060700D03*
G01*
X17310100Y3314700D03*
G01*
X17310100Y3568700D03*
G01*
X17310100Y3822700D03*
D25*
G01*
X17310100Y4076700D03*
M02*
