M48
METRIC,LZ,000.000
;FILE_FORMAT=3:3
;TYPE=PLATED
;Layer: Drill PTH
;EasyEDA v6.4.17, 2021-03-15T19:29:33+07:00
;1d297f51d7db443abc13b46094b112d6,e617fcbdf3ae42ba82bc49894c1518df,10
;Gerber Generator version 0.2
;Holesize 1 = 0.712 mm
T01C0.712
;Holesize 2 = 0.813 mm
T02C0.813
;Holesize 3 = 0.889 mm
T03C0.889
;Holesize 4 = 0.901 mm
T04C0.901
;Holesize 5 = 0.915 mm
T05C0.915
;Holesize 6 = 1.101 mm
T06C1.101
%
G05
G90
T01
X005715Y036068
X005715Y038608
X005715Y041148
X005715Y043688
T02
X004699Y022101G85X004699Y022095
X004699Y024641G85X004699Y024635
X004699Y027181G85X004699Y027175
T03
X032639Y063119
X032639Y060579
T04
X048476Y013739
X048476Y016279
X048476Y018819
X048476Y021359
X048476Y023899
X048476Y026439
X048476Y028979
X048476Y031516
X048476Y034056
X048476Y036596
X048476Y039136
X048476Y041676
X048476Y044216
X048479Y046755
X129479Y026439
X129479Y028979
X129479Y031516
X129479Y034056
T05
X005842Y063500
X005842Y060960
X005842Y058420
X005842Y055880
X005842Y053340
X019812Y050165
X019812Y047625
X019812Y045085
X019812Y042545
X019812Y040005
X019812Y037465
X019812Y034925
X019812Y032385
X019812Y029845
X019812Y027305
X019812Y024765
X019812Y022225
X019812Y019685
X019812Y017145
X019812Y014605
X035052Y050165
X035052Y047625
X035052Y045085
X035052Y042545
X035052Y040005
X035052Y037465
X035052Y034925
X035052Y032385
X035052Y029845
X035052Y027305
X035052Y024765
X035052Y022225
X035052Y019685
X035052Y017145
X035052Y014605
X161925Y007620
X161925Y010160
X161925Y012700
X161925Y015240
X161925Y017780
X161925Y020320
X161925Y022860
X161925Y025400
X161925Y027940
X161925Y030480
X161925Y033020
X161925Y035560
X161925Y038100
X161925Y040640
X161925Y043180
X161925Y045720
X161925Y048260
X161925Y050800
X161925Y053340
X139065Y053340
X139065Y050800
X139065Y048260
X139065Y045720
X139065Y043180
X139065Y040640
X139065Y038100
X139065Y035560
X139065Y033020
X139065Y030480
X139065Y027940
X139065Y025400
X139065Y022860
X139065Y020320
X139065Y017780
X139065Y015240
X139065Y012700
X139065Y010160
X139065Y007620
T06
X012827Y008636
X010287Y008636
X007747Y008636
X005207Y008636
X173101Y017907
X173101Y020447
X173101Y022987
X173101Y025527
X173101Y028067
X173101Y030607
X173101Y033147
X173101Y035687
X173101Y038227
X173101Y040767
M30
