G04 Layer: BottomSolderMaskLayer*
G04 EasyEDA v6.4.17, 2021-03-15T19:29:33+07:00*
G04 1d297f51d7db443abc13b46094b112d6,e617fcbdf3ae42ba82bc49894c1518df,10*
G04 Gerber Generator version 0.2*
G04 Scale: 100 percent, Rotated: No, Reflected: No *
G04 Dimensions in millimeters *
G04 leading zeros omitted , absolute positions ,4 integer and 5 decimal *
%FSLAX45Y45*%
%MOMM*%

%ADD15C,1.7780*%
%ADD37C,1.7018*%
%ADD38R,1.7018X1.7018*%
%ADD40C,1.4986*%
%ADD41C,1.9812*%
%ADD42R,1.9812X1.9812*%
%ADD43C,2.0828*%
%ADD44C,2.0032*%
%ADD46C,1.7272*%
%ADD48C,1.9032*%

%LPD*%
D37*
G01*
X584200Y6350000D03*
G01*
X584200Y6096000D03*
G01*
X584200Y5842000D03*
G01*
X584200Y5588000D03*
D38*
G01*
X584200Y5334000D03*
G36*
X496570Y3531870D02*
G01*
X496570Y3681729D01*
X646429Y3681729D01*
X646429Y3531870D01*
G37*
D40*
G01*
X571500Y3860800D03*
G01*
X571500Y4114800D03*
G01*
X571500Y4368800D03*
D41*
G01*
X1981200Y5016500D03*
G01*
X1981200Y4762500D03*
G01*
X1981200Y4508500D03*
G01*
X1981200Y4254500D03*
G01*
X1981200Y4000500D03*
G01*
X1981200Y3746500D03*
G01*
X1981200Y3492500D03*
G01*
X1981200Y3238500D03*
G01*
X1981200Y2984500D03*
G01*
X1981200Y2730500D03*
G01*
X1981200Y2476500D03*
G01*
X1981200Y2222500D03*
G01*
X1981200Y1968500D03*
G01*
X1981200Y1714500D03*
G01*
X1981200Y1460500D03*
G01*
X3505200Y5016500D03*
G01*
X3505200Y4762500D03*
G01*
X3505200Y4508500D03*
G01*
X3505200Y4254500D03*
G01*
X3505200Y4000500D03*
G01*
X3505200Y3746500D03*
G01*
X3505200Y3492500D03*
G01*
X3505200Y3238500D03*
G01*
X3505200Y2984500D03*
G01*
X3505200Y2730500D03*
G01*
X3505200Y2476500D03*
G01*
X3505200Y2222500D03*
G01*
X3505200Y1968500D03*
G01*
X3505200Y1714500D03*
D42*
G01*
X3505200Y1460500D03*
D43*
G01*
X469900Y2209800D03*
G01*
X469900Y2463800D03*
G01*
X469900Y2717800D03*
D44*
G01*
X4847590Y1373886D03*
G01*
X4847590Y1627886D03*
G01*
X4847590Y1881886D03*
G01*
X4847590Y2135886D03*
G01*
X4847590Y2389886D03*
G01*
X4847590Y2643886D03*
G01*
X4847590Y2897886D03*
G01*
X4847590Y3151631D03*
G01*
X4847590Y3405631D03*
G01*
X4847590Y3659631D03*
G01*
X4847590Y3913631D03*
G01*
X4847590Y4167631D03*
G01*
X4847590Y4421631D03*
G36*
X4747768Y4575302D02*
G01*
X4747768Y4775707D01*
X4947920Y4775707D01*
X4947920Y4575302D01*
G37*
G01*
X12947904Y2643886D03*
G01*
X12947904Y2897886D03*
G01*
X12947904Y3151631D03*
G36*
X12847827Y3305555D02*
G01*
X12847827Y3505707D01*
X13047979Y3505707D01*
X13047979Y3305555D01*
G37*
D46*
G01*
X16192500Y762000D03*
G01*
X16192500Y1016000D03*
G01*
X16192500Y1270000D03*
G01*
X16192500Y1524000D03*
G01*
X16192500Y1778000D03*
G01*
X16192500Y2032000D03*
G01*
X16192500Y2286000D03*
G01*
X16192500Y2540000D03*
G01*
X16192500Y2794000D03*
G01*
X16192500Y3048000D03*
G01*
X16192500Y3302000D03*
G01*
X16192500Y3556000D03*
G01*
X16192500Y3810000D03*
G01*
X16192500Y4064000D03*
G01*
X16192500Y4318000D03*
G01*
X16192500Y4572000D03*
G01*
X16192500Y4826000D03*
G01*
X16192500Y5080000D03*
G01*
X16192500Y5334000D03*
G01*
X13906500Y5334000D03*
G01*
X13906500Y5080000D03*
G01*
X13906500Y4826000D03*
G01*
X13906500Y4572000D03*
G01*
X13906500Y4318000D03*
G01*
X13906500Y4064000D03*
G01*
X13906500Y3810000D03*
G01*
X13906500Y3556000D03*
G01*
X13906500Y3302000D03*
G01*
X13906500Y3048000D03*
G01*
X13906500Y2794000D03*
G01*
X13906500Y2540000D03*
G01*
X13906500Y2286000D03*
G01*
X13906500Y2032000D03*
G01*
X13906500Y1778000D03*
G01*
X13906500Y1524000D03*
G01*
X13906500Y1270000D03*
G01*
X13906500Y1016000D03*
G01*
X13906500Y762000D03*
G36*
X3175000Y6223000D02*
G01*
X3175000Y6400800D01*
X3352800Y6400800D01*
X3352800Y6223000D01*
G37*
D15*
G01*
X3263900Y6057900D03*
G36*
X1187450Y768350D02*
G01*
X1187450Y958850D01*
X1377950Y958850D01*
X1377950Y768350D01*
G37*
D48*
G01*
X1028700Y863600D03*
G01*
X774700Y863600D03*
G01*
X520700Y863600D03*
G01*
X17310100Y1790700D03*
G01*
X17310100Y2044700D03*
G01*
X17310100Y2298700D03*
G01*
X17310100Y2552700D03*
G01*
X17310100Y2806700D03*
G01*
X17310100Y3060700D03*
G01*
X17310100Y3314700D03*
G01*
X17310100Y3568700D03*
G01*
X17310100Y3822700D03*
G36*
X17214850Y3987800D02*
G01*
X17214850Y4165600D01*
X17405350Y4165600D01*
X17405350Y3987800D01*
G37*
M02*
